<svg width="48" height="48" viewBox="0 0 48 48" fill="none" xmlns="http://www.w3.org/2000/svg">
<g clip-path="url(#clip0_1870_23476)">
<path d="M33.9014 17.9042C33.7334 18.0722 33.5078 18.1682 33.2726 18.1682H10.9766C10.1894 18.1682 9.79103 17.2082 10.3382 16.637L13.9958 12.8498C14.1638 12.677 14.3942 12.5762 14.6342 12.5762H37.0118C37.8038 12.5762 38.2022 13.5458 37.6406 14.117L33.9014 17.9042ZM33.9014 34.829C33.7334 34.9922 33.5078 35.0882 33.2726 35.0882H10.9766C10.1894 35.0882 9.79103 34.1522 10.3382 33.5954L13.9958 29.8994C14.1638 29.7314 14.3942 29.6354 14.6342 29.6354H37.0118C37.8038 29.6354 38.2022 30.581 37.6406 31.1378L33.9014 34.829ZM33.2726 21.1058C33.5078 21.1058 33.7334 21.197 33.9014 21.365L37.6406 25.061C38.2022 25.613 37.8038 26.5634 37.0118 26.5634H14.6342C14.3942 26.5634 14.1638 26.4674 13.9958 26.2994L10.3382 22.6034C9.78623 22.0466 10.1846 21.1106 10.9766 21.1106L33.2726 21.1058Z" fill="#00FFAD"/>
<path d="M24 0C37.2528 0 48 10.7472 48 24C48 37.2528 37.2528 48 24 48C10.7472 48 0 37.2528 0 24C0 10.7472 10.7472 0 24 0Z" fill="black"/>
<path fill-rule="evenodd" clip-rule="evenodd" d="M11.0978 21.7102H33.3074C33.5858 21.7102 33.8498 21.8206 34.0418 22.0174L37.5554 25.555C38.2034 26.2078 37.7426 27.3214 36.821 27.3214H14.6114C14.333 27.3214 14.069 27.211 13.877 27.0142L10.3634 23.4766C9.71063 22.8238 10.1762 21.7102 11.0978 21.7102ZM10.3634 17.0206L13.877 13.483C14.0738 13.2862 14.3378 13.1758 14.6114 13.1758H36.8162C37.7378 13.1758 38.2034 14.2894 37.5506 14.9422L34.0418 18.4798C33.845 18.6766 33.581 18.787 33.3074 18.787H11.0978C10.1762 18.787 9.71063 17.6734 10.3634 17.0206ZM37.5506 32.011L34.037 35.5486C33.8402 35.7454 33.5762 35.8558 33.3026 35.8558H11.0978C10.1762 35.8558 9.71063 34.7422 10.3634 34.0894L13.877 30.5518C14.0738 30.355 14.3378 30.2446 14.6114 30.2446H36.8162C37.7378 30.2446 38.2034 31.3582 37.5506 32.011Z" fill="url(#paint0_linear_1870_23476)"/>
</g>
<defs>
<linearGradient id="paint0_linear_1870_23476" x1="11.6412" y1="36.8316" x2="36.2729" y2="12.1999" gradientUnits="userSpaceOnUse">
<stop stop-color="#CB4EE8"/>
<stop offset="1" stop-color="#10F4B1"/>
</linearGradient>
<clipPath id="clip0_1870_23476">
<rect width="48" height="48" fill="white"/>
</clipPath>
</defs>
</svg>
