<svg width="24" height="24" viewBox="0 0 24 24" fill="none" xmlns="http://www.w3.org/2000/svg">
<path d="M6.5 8C6.22386 8 6 8.22386 6 8.5V9.5C6 9.77614 6.22386 10 6.5 10H13.5C13.7761 10 14 10.2239 14 10.5V11L13.9949 11.5C13.9922 11.7722 13.7722 11.9922 13.5 11.9949L13 12H12.5C12.2239 12 12 12.2239 12 12.5V13L11.9949 13.5C11.9922 13.7722 11.7722 13.9922 11.5 13.9949L11 14H10.5C10.2239 14 10 14.2239 10 14.5V15L9.99495 15.5C9.9922 15.7722 9.77222 15.9922 9.50003 15.9949L9 16H8.5C8.22386 16 8 16.2239 8 16.5V17L7.99495 17.5C7.9922 17.7722 7.77222 17.9922 7.50003 17.9949L7 18H6.5C6.22386 18 6 18.2239 6 18.5V19.5C6 19.7761 6.22386 20 6.5 20H7.5C7.77614 20 8 19.7761 8 19.5V19L8.00505 18.5C8.0078 18.2278 8.22778 18.0078 8.49998 18.0051L9 18H9.5C9.77614 18 10 17.7761 10 17.5V17L10.0051 16.5C10.0078 16.2278 10.2278 16.0078 10.5 16.0051L11 16H11.5C11.7761 16 12 15.7761 12 15.5V15L12.0051 14.5C12.0078 14.2278 12.2278 14.0078 12.5 14.0051L13 14H13.5C13.7761 14 14 13.7761 14 13.5V13L14.0051 12.5C14.0078 12.2278 14.2278 12.0078 14.5 12.0051L15 12H15.5C15.7761 12 16 12.2239 16 12.5V19.5C16 19.7761 16.2239 20 16.5 20H17.5C17.7761 20 18 19.7761 18 19.5V8.5C18 8.22386 17.7761 8 17.5 8H6.5Z" fill="#5E6167"/>
<path d="M6.5 6C6.22386 6 6 6.22386 6 6.5V7.5C6 7.77614 6.22386 8 6.5 8H13.5C13.7761 8 14 8.22386 14 8.5V9L13.9949 9.50002C13.9922 9.77222 13.7722 9.9922 13.5 9.99495L13 10H12.5C12.2239 10 12 10.2239 12 10.5V11L11.9949 11.5C11.9922 11.7722 11.7722 11.9922 11.5 11.9949L11 12H10.5C10.2239 12 10 12.2239 10 12.5V13L9.99495 13.5C9.9922 13.7722 9.77222 13.9922 9.50003 13.9949L9 14H8.5C8.22386 14 8 14.2239 8 14.5V15L7.99495 15.5C7.9922 15.7722 7.77222 15.9922 7.50003 15.9949L7 16H6.5C6.22386 16 6 16.2239 6 16.5V17.5C6 17.7761 6.22386 18 6.5 18H7.5C7.77614 18 8 17.7761 8 17.5V17L8.00505 16.5C8.0078 16.2278 8.22778 16.0078 8.49998 16.0051L9 16H9.5C9.77614 16 10 15.7761 10 15.5V15L10.0051 14.5C10.0078 14.2278 10.2278 14.0078 10.5 14.0051L11 14H11.5C11.7761 14 12 13.7761 12 13.5V13L12.0051 12.5C12.0078 12.2278 12.2278 12.0078 12.5 12.0051L13 12H13.5C13.7761 12 14 11.7761 14 11.5V11L14.0051 10.5C14.0078 10.2278 14.2278 10.0078 14.5 10.0051L15 10H15.5C15.7761 10 16 10.2239 16 10.5V17.5C16 17.7761 16.2239 18 16.5 18H17.5C17.7761 18 18 17.7761 18 17.5V6.5C18 6.22386 17.7761 6 17.5 6H6.5Z" fill="white"/>
</svg>
