<svg width="48" height="48" viewBox="0 0 48 48" fill="none" xmlns="http://www.w3.org/2000/svg">
<path fill-rule="evenodd" clip-rule="evenodd" d="M24 48.001C10.8 48.001 0 37.201 0 23.881C0.12 10.681 10.8 -0.11901 24.12 0.000990429C37.32 0.12099 48 10.801 48 24.241C47.88 37.321 37.2 48.001 24 48.001Z" fill="#0090FF"/>
<path fill-rule="evenodd" clip-rule="evenodd" d="M26.2805 21.121L25.5605 24.961L32.4005 25.921L31.9205 27.721L25.2005 26.761C24.7205 28.321 24.4805 30.001 23.8805 31.441C23.2805 33.121 22.6805 34.801 21.9605 36.361C21.0005 38.401 19.3205 39.841 17.0405 40.201C15.7205 40.441 14.2805 40.321 13.2005 39.481C12.8405 39.241 12.4805 38.761 12.4805 38.401C12.4805 37.921 12.7205 37.321 13.0805 37.081C13.3205 36.961 13.9205 37.081 14.2805 37.201C14.6405 37.561 15.0005 38.041 15.2405 38.521C15.9605 39.481 16.9205 39.601 17.8805 38.881C18.9605 37.921 19.5605 36.601 19.9205 35.281C20.6405 32.401 21.3605 29.641 21.9605 26.761V26.281L15.6005 25.321L15.8405 23.521L22.4405 24.481L23.2805 20.761L16.4405 19.681L16.6805 17.761L23.7605 18.721C24.0005 18.001 24.1205 17.401 24.3605 16.801C24.9605 14.641 25.5605 12.481 27.0005 10.561C28.4405 8.64097 30.1205 7.44097 32.6405 7.56097C33.7205 7.56097 34.8005 7.92097 35.5205 8.76097C35.6405 8.88097 35.8805 9.12097 35.8805 9.36097C35.8805 9.84097 35.8805 10.441 35.5205 10.801C35.0405 11.161 34.4405 11.041 33.9605 10.561C33.6005 10.201 33.3605 9.84097 33.0005 9.48097C32.2805 8.52097 31.2005 8.40097 30.3605 9.24097C29.7605 9.84097 29.1605 10.681 28.8005 11.521C27.9605 14.041 27.3605 16.681 26.5205 19.321L33.1205 20.281L32.6405 22.081L26.2805 21.121Z" fill="white"/>
</svg>
