<svg width="49" height="48" viewBox="0 0 49 48" fill="none" xmlns="http://www.w3.org/2000/svg">
<g clip-path="url(#clip0_836_5054)">
<path d="M24.6665 48C37.9213 48 48.6665 37.2548 48.6665 24C48.6665 10.7452 37.9213 0 24.6665 0C11.4117 0 0.666504 10.7452 0.666504 24C0.666504 37.2548 11.4117 48 24.6665 48Z" fill="#2E3148"/>
<path d="M24.6667 37.9258C32.3577 37.9258 38.5926 31.691 38.5926 23.9999C38.5926 16.3088 32.3577 10.074 24.6667 10.074C16.9756 10.074 10.7407 16.3088 10.7407 23.9999C10.7407 31.691 16.9756 37.9258 24.6667 37.9258Z" fill="#1B1E36"/>
<path d="M24.7158 3.06177C22.1252 3.06177 20.0244 12.4583 20.0244 24.0494C20.0244 35.6405 22.1252 45.0371 24.7158 45.0371C27.3064 45.0371 29.4071 35.6405 29.4071 24.0494C29.4071 12.4583 27.3064 3.06177 24.7158 3.06177ZM25.0397 43.8519C24.7434 44.247 24.4471 43.9507 24.4471 43.9507C23.254 42.5679 22.6575 40 22.6575 40C20.5706 33.284 21.0674 18.8642 21.0674 18.8642C22.0481 7.41634 23.8328 4.71214 24.4392 4.11164C24.5013 4.05049 24.583 4.01319 24.6699 4.00633C24.7568 3.99946 24.8433 4.02347 24.9143 4.07411C25.7953 4.69831 26.534 7.30868 26.534 7.30868C28.7158 15.4074 28.5182 23.0124 28.5182 23.0124C28.7158 29.6297 27.4249 37.0371 27.4249 37.0371C26.4313 42.6667 25.0397 43.8519 25.0397 43.8519Z" fill="#6F7390"/>
<path d="M42.9204 13.6049C41.6305 11.357 32.4354 14.2113 22.3772 19.9802C12.3189 25.7491 5.22261 32.2469 6.5115 34.4938C7.80039 36.7407 16.9964 33.8874 27.0547 28.1185C37.113 22.3496 44.2093 15.8518 42.9204 13.6049ZM7.70063 34.1847C7.20681 34.1224 7.31841 33.7165 7.31841 33.7165C7.92384 31.994 9.85174 30.1985 9.85174 30.1985C14.6409 25.0459 27.3964 18.3012 27.3964 18.3012C37.8132 13.4548 41.0488 13.6592 41.8695 13.8844C41.9539 13.9078 42.0273 13.9603 42.0767 14.0326C42.126 14.1049 42.1482 14.1924 42.1392 14.2795C42.0404 15.354 40.1392 17.2938 40.1392 17.2938C34.2033 23.2197 27.508 26.8335 27.508 26.8335C21.8666 30.2992 14.7989 32.8642 14.7989 32.8642C9.42113 34.8019 7.70063 34.1847 7.70063 34.1847Z" fill="#6F7390"/>
<path d="M42.875 34.5679C44.1748 32.3259 37.0972 25.7975 27.0725 19.9862C17.0479 14.1748 7.85576 11.2849 6.557 13.5309C5.25823 15.7768 12.3348 22.3012 22.3644 28.1126C32.394 33.924 41.5763 36.8138 42.875 34.5679ZM7.41823 14.397C7.22564 13.9417 7.63157 13.8321 7.63157 13.8321C9.42613 13.4933 11.9466 14.2647 11.9466 14.2647C18.8039 15.8262 31.0311 23.4854 31.0311 23.4854C40.4454 30.0731 41.8893 32.9748 42.1056 33.7985C42.1276 33.883 42.1191 33.9725 42.0815 34.0513C42.0439 34.1301 41.9797 34.1931 41.9002 34.2291C40.9185 34.6785 38.2893 34.0089 38.2893 34.0089C30.1856 31.8361 23.7046 27.8548 23.7046 27.8548C17.8814 24.7141 12.1234 19.8815 12.1234 19.8815C7.74811 16.1975 7.42021 14.401 7.42021 14.401L7.41823 14.397Z" fill="#6F7390"/>
<path d="M24.6664 26.469C26.0301 26.469 27.1355 25.3636 27.1355 23.9999C27.1355 22.6362 26.0301 21.5308 24.6664 21.5308C23.3027 21.5308 22.1973 22.6362 22.1973 23.9999C22.1973 25.3636 23.3027 26.469 24.6664 26.469Z" fill="#8992A3"/>
<path d="M34.79 16.0001C35.5809 16.0001 36.2221 15.3368 36.2221 14.5186C36.2221 13.7004 35.5809 13.0371 34.79 13.0371C33.9991 13.0371 33.3579 13.7004 33.3579 14.5186C33.3579 15.3368 33.9991 16.0001 34.79 16.0001Z" fill="#8992A3"/>
<path d="M11.2837 21.0369C12.0746 21.0369 12.7158 20.3737 12.7158 19.5555C12.7158 18.7373 12.0746 18.074 11.2837 18.074C10.4927 18.074 9.85156 18.7373 9.85156 19.5555C9.85156 20.3737 10.4927 21.0369 11.2837 21.0369Z" fill="#8992A3"/>
<path d="M21.7529 39.2098C22.5438 39.2098 23.185 38.5465 23.185 37.7283C23.185 36.9101 22.5438 36.2468 21.7529 36.2468C20.962 36.2468 20.3208 36.9101 20.3208 37.7283C20.3208 38.5465 20.962 39.2098 21.7529 39.2098Z" fill="#8992A3"/>
</g>
<defs>
<clipPath id="clip0_836_5054">
<rect width="48" height="48" fill="white" transform="translate(0.666504)"/>
</clipPath>
</defs>
</svg>
