<svg width="48" height="48" viewBox="0 0 48 48" fill="none" xmlns="http://www.w3.org/2000/svg">
<g clip-path="url(#clip0_836_5096)">
<path d="M24 48C37.2548 48 48 37.2548 48 24C48 10.7452 37.2548 0 24 0C10.7452 0 0 10.7452 0 24C0 37.2548 10.7452 48 24 48Z" fill="black"/>
<g clip-path="url(#clip1_836_5096)">
<path d="M20.9685 35.3686C25.5735 35.3686 29.3054 31.6367 29.3054 27.0317C29.3054 22.4268 25.5735 18.6949 20.9685 18.6949C16.3635 18.6949 12.6317 22.4268 12.6317 27.0317C12.6317 31.6367 16.3635 35.3686 20.9685 35.3686ZM20.9685 38.4002C14.6901 38.4002 9.6001 33.3101 9.6001 27.0317C9.6001 20.7533 14.6901 15.6633 20.9685 15.6633C27.2469 15.6633 32.3369 20.7533 32.3369 27.0317C32.3369 33.3101 27.2469 38.4002 20.9685 38.4002Z" fill="#FBCC5C"/>
<path d="M27.0315 29.3054C31.6365 29.3054 35.3683 25.5735 35.3683 20.9685C35.3683 16.3635 31.6365 12.6317 27.0315 12.6317C22.4265 12.6317 18.6947 16.3635 18.6947 20.9685C18.6947 25.5735 22.4265 29.3054 27.0315 29.3054ZM27.0315 32.3369C20.7531 32.3369 15.6631 27.2469 15.6631 20.9685C15.6631 14.6901 20.7531 9.6001 27.0315 9.6001C33.3099 9.6001 38.3999 14.6901 38.3999 20.9685C38.3999 27.2469 33.3099 32.3369 27.0315 32.3369Z" fill="#35D07F"/>
<path d="M27.4074 32.337C28.1956 31.3821 28.7595 30.2634 29.0596 29.0599C30.2601 28.7598 31.3788 28.1959 32.3368 27.4077C32.2943 28.7992 31.9942 30.1694 31.4516 31.4548C30.1692 31.9944 28.7989 32.2946 27.4074 32.337ZM18.9402 18.9405C17.7397 19.2406 16.6211 19.8045 15.6631 20.5927C15.7055 19.2012 16.0057 17.8309 16.5483 16.5486C17.8307 16.0089 19.204 15.7088 20.5924 15.6633C19.8042 16.6183 19.2403 17.7369 18.9402 18.9405Z" fill="#5EA33B"/>
</g>
</g>
<defs>
<clipPath id="clip0_836_5096">
<rect width="48" height="48" fill="white"/>
</clipPath>
<clipPath id="clip1_836_5096">
<rect width="28.8" height="28.8" fill="white" transform="translate(9.6001 9.6001)"/>
</clipPath>
</defs>
</svg>
