<svg width="49" height="48" viewBox="0 0 49 48" fill="none" xmlns="http://www.w3.org/2000/svg">
<path d="M24.3335 48C37.5883 48 48.3335 37.2548 48.3335 24C48.3335 10.7452 37.5883 0 24.3335 0C11.0787 0 0.333496 10.7452 0.333496 24C0.333496 37.2548 11.0787 48 24.3335 48Z" fill="#627EEA"/>
<path d="M25.0801 6V19.305L36.3256 24.33L25.0801 6Z" fill="white" fill-opacity="0.602"/>
<path d="M25.0805 6L13.8335 24.33L25.0805 19.305V6Z" fill="white"/>
<path d="M25.0801 32.9521V41.9926L36.3331 26.4241L25.0801 32.9521Z" fill="white" fill-opacity="0.602"/>
<path d="M25.0805 41.9926V32.9506L13.8335 26.4241L25.0805 41.9926Z" fill="white"/>
<path d="M25.0801 30.8598L36.3256 24.3303L25.0801 19.3083V30.8598Z" fill="white" fill-opacity="0.2"/>
<path d="M13.8335 24.3303L25.0805 30.8598V19.3083L13.8335 24.3303Z" fill="white" fill-opacity="0.602"/>
</svg>
