<svg width="48" height="48" viewBox="0 0 48 48" fill="none" xmlns="http://www.w3.org/2000/svg">
<g clip-path="url(#clip0_836_4946)">
<path d="M24 48C37.2548 48 48 37.2548 48 24C48 10.7452 37.2548 0 24 0C10.7452 0 0 10.7452 0 24C0 37.2548 10.7452 48 24 48Z" fill="#110666"/>
<path d="M36.5942 13.9478C36.3065 12.8527 35.3952 11.7496 33.7407 10.5347C32.4138 9.55952 31.015 9 29.8959 9C29.6721 9 29.4723 9.02398 29.2645 9.06395C28.7529 9.16786 28.3053 9.54354 28.0255 10.1031C27.6818 10.7665 27.6019 11.6537 27.8257 12.1973C27.9057 12.3651 28.0096 12.5729 28.1295 12.7568C27.0504 13.4202 26.4429 13.6041 26.355 13.628C29.1606 14.5792 31.5026 16.5695 32.9733 19.1593L32.9973 18.9115C33.0612 18.2321 33.2611 17.4408 33.5488 16.6335C33.8366 16.7134 34.1163 16.7613 34.4041 16.7613C35.1554 16.7613 35.8109 16.4496 36.2185 15.8901C36.6102 15.3146 36.778 14.5712 36.5942 13.9478Z" fill="#5E12A0"/>
<path d="M33.6606 16.0179C35.515 16.5374 36.2664 15.0827 36.0186 14.1155C35.7548 13.1403 34.8995 12.1492 33.3888 11.0302C31.8861 9.91111 30.3594 9.45551 29.3763 9.66333C28.4011 9.87115 28.1133 11.3819 28.3611 11.9654C28.465 12.1892 28.6889 12.5249 28.9926 12.9006C28.6089 13.1723 28.2412 13.3801 27.9375 13.564C29.8079 14.4113 31.4385 15.7381 32.6614 17.3927C32.8053 16.8332 33.0052 16.3376 33.189 15.898C33.3329 15.914 33.4927 15.9539 33.6606 16.0179Z" fill="url(#paint0_radial_836_4946)"/>
<path d="M23.0536 36.3125C29.3362 36.3125 34.4359 31.1329 34.4359 24.7384C34.4359 18.3439 29.3442 13.1643 23.0536 13.1643C16.771 13.1643 11.6714 18.3439 11.6714 24.7384C11.6714 31.1329 16.771 36.3125 23.0536 36.3125Z" fill="url(#paint1_radial_836_4946)"/>
<path opacity="0.6" d="M35.0838 13.1564C33.5331 11.5019 32.2303 11.0622 30.6636 10.7105C29.4407 10.4228 29.7684 9.71939 31.2551 9.86327C30.5437 9.61548 29.8723 9.55154 29.3847 9.65545C28.4095 9.86327 28.1218 11.374 28.3696 11.9575C28.4735 12.1813 28.6973 12.517 29.001 12.8927C28.4495 13.2684 27.9859 13.5321 27.5942 13.7399C27.7781 13.8199 28.0019 13.9238 28.2657 14.0677C28.9611 14.4433 29.7124 15.0588 29.7124 15.0588C28.5694 14.0677 28.8172 13.6121 30.3838 12.493C30.8714 12.1413 31.7667 12.1813 32.6059 12.6209C33.4452 13.0605 34.4204 14.1556 34.4204 14.1556L33.4852 15.978C33.5491 16.002 33.6051 16.018 33.669 16.042C34.2605 16.2098 34.7241 16.1699 35.0918 16.018C35.5155 15.7462 36.6345 14.835 35.0838 13.1564Z" fill="#A98698"/>
<path d="M30.647 11.7097C31.0547 11.8776 31.5822 12.1654 32.2377 12.597C33.013 13.1165 33.6844 13.692 34.1081 14.1477C33.3967 15.0988 32.9251 16.4017 32.6453 17.3129C32.7892 17.5208 32.9491 17.7286 33.0929 17.9364C33.2368 17.4169 33.4766 16.6495 33.8043 15.8902C33.8843 15.9141 33.9882 15.9141 34.0921 15.9141C34.3399 15.9141 34.6196 15.8742 34.8434 15.6823C35.0033 15.5545 35.1871 15.3306 35.1712 14.915C35.1712 14.5233 34.8674 14.0278 34.236 13.4203C33.7883 12.9886 33.1809 12.5091 32.5654 12.0774C30.8149 10.8944 29.5919 10.5667 29.0404 11.1262C28.6727 11.5019 28.7127 11.9575 28.8406 12.2853C28.1931 12.7169 27.6416 13.0286 27.2739 13.2364C27.5217 13.3164 27.7455 13.4203 27.9853 13.5242C28.6328 13.1805 29.568 12.581 30.647 11.7097ZM34.4917 14.6752C34.5557 14.7791 34.5717 14.883 34.5717 14.947C34.5717 15.1308 34.5077 15.1948 34.4678 15.2347C34.3878 15.2987 34.22 15.3386 34.0841 15.3386C34.212 15.0829 34.3479 14.875 34.4917 14.6752ZM29.464 11.5819C29.528 11.5179 29.6879 11.4779 29.9516 11.5179C29.7518 11.6858 29.544 11.8296 29.3442 11.9735C29.3202 11.8376 29.3442 11.6858 29.464 11.5819Z" fill="#5E12A0"/>
<path d="M23.0537 12.4771C16.3954 12.4771 11 17.9683 11 24.7385C11 31.5087 16.3954 37 23.0537 37C29.712 37 35.1073 31.5087 35.1073 24.7385C35.1073 17.9683 29.688 12.4771 23.0537 12.4771ZM23.0537 36.3126C16.7631 36.3126 11.6714 31.1331 11.6714 24.7385C11.6714 18.344 16.7631 13.1645 23.0537 13.1645C29.3443 13.1645 34.4359 18.344 34.4359 24.7385C34.4359 31.1331 29.3203 36.3126 23.0537 36.3126Z" fill="#5E12A0"/>
<path opacity="0.6" d="M23.0536 36.3125C29.3362 36.3125 34.4359 31.1329 34.4359 24.7384C34.4359 18.3439 29.3442 13.1643 23.0536 13.1643C16.771 13.1643 11.6714 18.3439 11.6714 24.7384C11.6714 31.1329 16.771 36.3125 23.0536 36.3125Z" fill="url(#paint2_linear_836_4946)"/>
<path opacity="0.6" d="M22.9735 34.9059C16.7629 33.8908 12.5505 27.9519 13.5656 21.6293C14.0132 18.8317 15.396 16.4497 17.3544 14.7312C14.5008 16.4098 12.3906 19.3273 11.8151 22.8922C10.816 29.2068 15.0283 35.1537 21.223 36.1688C24.6841 36.7523 28.0252 35.6493 30.4871 33.4991C28.305 34.778 25.6592 35.3375 22.9735 34.9059Z" fill="#A98698"/>
<path opacity="0.6" d="M24.8681 13.3243C21.9986 12.8447 19.209 13.5082 16.931 14.9789C16.891 15.0189 16.851 15.0589 16.851 15.0589C17.7303 14.5233 19.0092 14.0437 19.0092 14.0437C15.708 15.9941 14.6929 18.2082 14.6929 18.2082C15.9718 15.6823 19.7445 13.8998 22.694 13.7799C25.6435 13.6521 27.5778 14.5473 29.9438 16.4736C32.3018 18.424 33.7325 22.3966 33.5887 25.5459C33.4688 28.6952 31.8382 31.237 31.8382 31.237C32.9572 29.7662 33.6286 28.6872 34.0603 27.5921C34.1402 27.2644 34.2201 26.9287 34.2601 26.577C35.2672 20.2864 31.0708 14.3395 24.8681 13.3243Z" fill="url(#paint3_linear_836_4946)"/>
<path d="M33.8606 24.6345C33.8606 30.7013 29.0168 35.6331 23.0539 35.6331C17.091 35.6331 12.2231 30.7013 12.2231 24.6345H33.8606Z" fill="url(#paint4_linear_836_4946)"/>
<path opacity="0.6" d="M33.0052 24.6345C33.0052 30.5574 28.4011 35.4013 22.6221 35.6331C22.7659 35.6331 22.9098 35.6331 23.0457 35.6331C29.0086 35.6331 33.8524 30.7013 33.8524 24.6345H33.0052Z" fill="url(#paint5_linear_836_4946)"/>
<path opacity="0.7" d="M13.7498 24.6345H12.2231C12.2231 30.7013 17.067 35.6331 23.0299 35.6331C23.2937 35.6331 23.5414 35.6331 23.7812 35.6091C18.186 35.1935 13.7498 30.4296 13.7498 24.6345Z" fill="url(#paint6_linear_836_4946)"/>
<path d="M33.8446 24.7385C33.8446 23.4755 31.6865 22.7482 28.8169 22.5004C26.7387 22.3325 24.6445 22.5403 22.2386 23.2837C20.1603 23.9072 18.2899 23.8033 16.9231 23.6354C13.8937 23.2837 12.2231 23.2437 12.2231 24.7305C12.2231 26.8806 16.5394 29.5743 23.0139 28.6471C26.2911 28.1675 27.9776 27.2004 29.912 26.5369C32.0142 25.8335 33.8446 25.8575 33.8446 24.7385Z" fill="url(#paint7_linear_836_4946)"/>
<path d="M26.5946 19.519C27.6097 19.519 28.425 18.6877 28.425 17.6566C28.425 16.6255 27.6017 15.7942 26.5946 15.7942C25.5795 15.7942 24.7642 16.6255 24.7642 17.6566C24.7642 18.6877 25.5795 19.519 26.5946 19.519Z" fill="white"/>
<path d="M29.5839 20.9019C30.0076 20.9019 30.3593 20.5502 30.3593 20.1185C30.3593 19.6869 30.0156 19.3352 29.5839 19.3352C29.1523 19.3352 28.8086 19.6869 28.8086 20.1185C28.8086 20.5502 29.1603 20.9019 29.5839 20.9019Z" fill="white"/>
<path opacity="0.6" d="M32.3577 16.1617C32.3337 16.1617 32.3177 16.1617 32.3177 16.1617C32.1978 16.1377 32.1179 16.0179 32.1339 15.874C32.3177 14.9228 33.093 14.0116 33.133 13.9716C33.2129 13.8677 33.3808 13.8677 33.4607 13.9476C33.5646 14.0276 33.5646 14.1954 33.4847 14.2753C33.4607 14.2993 32.7493 15.1466 32.5895 15.9699C32.5575 16.0978 32.4616 16.1617 32.3577 16.1617Z" fill="url(#paint8_linear_836_4946)"/>
<path opacity="0.2" d="M22.3024 33.3711C22.6141 33.3711 22.8699 33.1153 22.8699 32.7876C22.8699 32.4679 22.6141 32.2041 22.3024 32.2041C21.9906 32.2041 21.7349 32.4599 21.7349 32.7876C21.7349 33.1153 21.9827 33.3711 22.3024 33.3711Z" fill="white"/>
<path opacity="0.6" d="M21.9748 33.1632C21.751 32.9314 21.751 32.5637 21.9748 32.3319C22.0148 32.292 22.0548 32.268 22.0947 32.228C22.0148 32.252 21.9509 32.292 21.8949 32.3559C21.6711 32.5797 21.6711 32.9554 21.8949 33.1872C22.0787 33.371 22.3665 33.411 22.5903 33.2911C22.3825 33.371 22.1347 33.3311 21.9748 33.1632Z" fill="url(#paint9_linear_836_4946)"/>
<path opacity="0.3" d="M22.5022 32.6279C22.5662 32.6279 22.6221 32.5719 22.6221 32.5C22.6221 32.428 22.5662 32.3721 22.5022 32.3721C22.4383 32.3721 22.3823 32.428 22.3823 32.5C22.3823 32.5719 22.4383 32.6279 22.5022 32.6279Z" fill="white"/>
<path opacity="0.2" d="M25.2757 33.0835C25.5874 33.0835 25.8432 32.8277 25.8432 32.5C25.8432 32.1803 25.5874 31.9165 25.2757 31.9165C24.964 31.9165 24.7082 32.1723 24.7082 32.5C24.7002 32.8197 24.956 33.0835 25.2757 33.0835Z" fill="white"/>
<path opacity="0.6" d="M24.948 32.8756C24.7242 32.6518 24.7242 32.2761 24.948 32.0443C24.9879 32.0044 25.0279 31.9804 25.0679 31.9404C24.9879 31.9644 24.924 32.0044 24.8681 32.0683C24.6442 32.2921 24.6442 32.6678 24.8681 32.8996C25.0519 33.0834 25.3396 33.1314 25.5635 33.0035C25.3556 33.0834 25.1078 33.0435 24.948 32.8756Z" fill="url(#paint10_linear_836_4946)"/>
<path opacity="0.3" d="M25.4754 32.332C25.5393 32.332 25.5953 32.276 25.5953 32.2041C25.5953 32.1321 25.5393 32.0762 25.4754 32.0762C25.4114 32.0762 25.3555 32.1321 25.3555 32.2041C25.3555 32.276 25.4114 32.332 25.4754 32.332Z" fill="white"/>
<path opacity="0.2" d="M23.805 34.4262C24.0448 34.4262 24.2286 34.2344 24.2286 33.9946C24.2286 33.7548 24.0368 33.563 23.805 33.563C23.5652 33.563 23.3813 33.7548 23.3813 33.9946C23.3813 34.2344 23.5732 34.4262 23.805 34.4262Z" fill="white"/>
<path opacity="0.6" d="M23.5652 34.2585C23.4053 34.0906 23.4053 33.8028 23.5652 33.635C23.5892 33.611 23.6291 33.595 23.6451 33.571C23.5812 33.595 23.5412 33.635 23.5012 33.675C23.3414 33.8428 23.3414 34.1306 23.5012 34.2984C23.6451 34.4423 23.8449 34.4663 24.0288 34.3624C23.8689 34.4263 23.6851 34.3863 23.5652 34.2585Z" fill="url(#paint11_linear_836_4946)"/>
<path opacity="0.3" d="M23.9486 33.8505C23.9965 33.8505 24.0285 33.8106 24.0285 33.7706C24.0285 33.7226 23.9885 33.6907 23.9486 33.6907C23.9086 33.6907 23.8687 33.7306 23.8687 33.7706C23.8687 33.8106 23.9006 33.8505 23.9486 33.8505Z" fill="white"/>
<path opacity="0.2" d="M26.4346 34.1145C26.6744 34.1145 26.8583 33.9226 26.8583 33.6829C26.8583 33.4431 26.6664 33.2512 26.4346 33.2512C26.1948 33.2512 26.011 33.4431 26.011 33.6829C26.003 33.9226 26.1948 34.1145 26.4346 34.1145Z" fill="white"/>
<path opacity="0.6" d="M26.1868 33.9545C26.0269 33.7866 26.0269 33.4989 26.1868 33.331C26.2108 33.3071 26.2507 33.2911 26.2667 33.2671C26.2028 33.2911 26.1628 33.331 26.1228 33.371C25.963 33.5389 25.963 33.8266 26.1228 33.9945C26.2667 34.1383 26.4665 34.1623 26.6504 34.0584C26.4905 34.1144 26.3067 34.0744 26.1868 33.9545Z" fill="url(#paint12_linear_836_4946)"/>
<path opacity="0.3" d="M26.5785 33.539C26.6265 33.539 26.6584 33.499 26.6584 33.4591C26.6584 33.4111 26.6185 33.3792 26.5785 33.3792C26.5385 33.3792 26.4986 33.4191 26.4986 33.4591C26.4906 33.499 26.5306 33.539 26.5785 33.539Z" fill="white"/>
<path opacity="0.2" d="M19.8806 33.1634C20.4002 33.1634 20.8158 32.7397 20.8158 32.2122C20.8158 31.6846 20.4002 31.261 19.8806 31.261C19.3611 31.261 18.9454 31.6846 18.9454 32.2122C18.9374 32.7397 19.3611 33.1634 19.8806 33.1634Z" fill="white"/>
<path opacity="0.6" d="M19.3446 32.8117C18.9769 32.436 18.9769 31.8365 19.3446 31.4688C19.4085 31.4049 19.4645 31.3649 19.5444 31.325C19.4245 31.3649 19.3206 31.4528 19.2167 31.5328C18.849 31.9084 18.849 32.5079 19.2167 32.8756C19.5204 33.1874 19.992 33.2513 20.3597 33.0195C20.016 33.1634 19.6163 33.0994 19.3446 32.8117Z" fill="url(#paint13_linear_836_4946)"/>
<path opacity="0.3" d="M20.1998 31.9244C20.3117 31.9244 20.3997 31.8285 20.3997 31.7166C20.3997 31.6047 20.3117 31.5088 20.1998 31.5088C20.0879 31.5088 20 31.6047 20 31.7166C20 31.8285 20.0879 31.9244 20.1998 31.9244Z" fill="white"/>
<path opacity="0.2" d="M28.2414 30.8213C28.7609 30.8213 29.1766 30.3977 29.1766 29.8701C29.1766 29.3426 28.7609 28.9189 28.2414 28.9189C27.7218 28.9189 27.3062 29.3426 27.3062 29.8701C27.3062 30.3977 27.7298 30.8213 28.2414 30.8213Z" fill="white"/>
<path opacity="0.6" d="M27.6976 30.4696C27.3299 30.094 27.3299 29.4945 27.6976 29.1268C27.7615 29.0628 27.8175 29.0229 27.8974 28.9829C27.7775 29.0229 27.6736 29.1108 27.5697 29.1907C27.202 29.5664 27.202 30.1659 27.5697 30.5336C27.8734 30.8453 28.345 30.9093 28.7127 30.6775C28.369 30.8213 27.9774 30.7654 27.6976 30.4696Z" fill="url(#paint14_linear_836_4946)"/>
<path opacity="0.3" d="M28.569 29.5824C28.6809 29.5824 28.7688 29.4865 28.7688 29.3746C28.7688 29.2627 28.6809 29.1667 28.569 29.1667C28.4571 29.1667 28.3691 29.2627 28.3691 29.3746C28.3691 29.4865 28.4571 29.5824 28.569 29.5824Z" fill="white"/>
</g>
<defs>
<radialGradient id="paint0_radial_836_4946" cx="0" cy="0" r="1" gradientUnits="userSpaceOnUse" gradientTransform="translate(35.6497 12.8073) scale(9.09876 9.25543)">
<stop stop-color="#FFEAFF" stop-opacity="0.6"/>
<stop offset="0.6807" stop-color="#A087C9"/>
<stop offset="1" stop-color="#10002F"/>
</radialGradient>
<radialGradient id="paint1_radial_836_4946" cx="0" cy="0" r="1" gradientUnits="userSpaceOnUse" gradientTransform="translate(30.5877 16.7547) scale(22.2614 22.6448)">
<stop stop-color="#FFEAFF" stop-opacity="0.6"/>
<stop offset="0.6807" stop-color="#A087C9"/>
<stop offset="1" stop-color="#10002F"/>
</radialGradient>
<linearGradient id="paint2_linear_836_4946" x1="21.1703" y1="36.1539" x2="24.9357" y2="13.317" gradientUnits="userSpaceOnUse">
<stop stop-color="#81FFFF"/>
<stop offset="0.6202" stop-color="white" stop-opacity="0"/>
</linearGradient>
<linearGradient id="paint3_linear_836_4946" x1="31.1704" y1="16.9818" x2="21.6135" y2="25.6021" gradientUnits="userSpaceOnUse">
<stop offset="0.2888" stop-color="white"/>
<stop offset="0.7796" stop-color="white" stop-opacity="0"/>
</linearGradient>
<linearGradient id="paint4_linear_836_4946" x1="12.2228" y1="30.13" x2="33.8633" y2="30.13" gradientUnits="userSpaceOnUse">
<stop stop-color="#0002E9"/>
<stop offset="0.9952" stop-color="#FF00C7"/>
</linearGradient>
<linearGradient id="paint5_linear_836_4946" x1="34.9386" y1="25.6582" x2="22.9783" y2="36.7701" gradientUnits="userSpaceOnUse">
<stop offset="0.2888" stop-color="white"/>
<stop offset="0.7796" stop-color="white" stop-opacity="0"/>
</linearGradient>
<linearGradient id="paint6_linear_836_4946" x1="12.2228" y1="30.13" x2="23.7861" y2="30.13" gradientUnits="userSpaceOnUse">
<stop stop-color="#000292"/>
<stop offset="0.9952" stop-color="#7D00C7"/>
</linearGradient>
<linearGradient id="paint7_linear_836_4946" x1="12.2465" y1="25.6423" x2="33.8435" y2="25.6423" gradientUnits="userSpaceOnUse">
<stop stop-color="#000292"/>
<stop offset="0.9952" stop-color="#BE00C7"/>
</linearGradient>
<linearGradient id="paint8_linear_836_4946" x1="33.516" y1="13.8831" x2="31.9251" y2="16.4247" gradientUnits="userSpaceOnUse">
<stop offset="0.2888" stop-color="white"/>
<stop offset="0.7796" stop-color="white" stop-opacity="0"/>
</linearGradient>
<linearGradient id="paint9_linear_836_4946" x1="21.7249" y1="32.7962" x2="22.5862" y2="32.7962" gradientUnits="userSpaceOnUse">
<stop offset="0.2888" stop-color="white"/>
<stop offset="0.7796" stop-color="white" stop-opacity="0"/>
</linearGradient>
<linearGradient id="paint10_linear_836_4946" x1="24.6942" y1="32.5061" x2="25.5556" y2="32.5061" gradientUnits="userSpaceOnUse">
<stop offset="0.2888" stop-color="white"/>
<stop offset="0.7796" stop-color="white" stop-opacity="0"/>
</linearGradient>
<linearGradient id="paint11_linear_836_4946" x1="23.3761" y1="34.0046" x2="24.0227" y2="34.0046" gradientUnits="userSpaceOnUse">
<stop offset="0.2888" stop-color="white"/>
<stop offset="0.7796" stop-color="white" stop-opacity="0"/>
</linearGradient>
<linearGradient id="paint12_linear_836_4946" x1="25.9932" y1="33.6937" x2="26.6399" y2="33.6937" gradientUnits="userSpaceOnUse">
<stop offset="0.2888" stop-color="white"/>
<stop offset="0.7796" stop-color="white" stop-opacity="0"/>
</linearGradient>
<linearGradient id="paint13_linear_836_4946" x1="18.9418" y1="32.2383" x2="20.3484" y2="32.2383" gradientUnits="userSpaceOnUse">
<stop offset="0.2888" stop-color="white"/>
<stop offset="0.7796" stop-color="white" stop-opacity="0"/>
</linearGradient>
<linearGradient id="paint14_linear_836_4946" x1="27.296" y1="29.8982" x2="28.7027" y2="29.8982" gradientUnits="userSpaceOnUse">
<stop offset="0.2888" stop-color="white"/>
<stop offset="0.7796" stop-color="white" stop-opacity="0"/>
</linearGradient>
<clipPath id="clip0_836_4946">
<rect width="48" height="48" fill="white"/>
</clipPath>
</defs>
</svg>
