<svg width="32" height="32" viewBox="0 0 32 32" fill="none" xmlns="http://www.w3.org/2000/svg">
<path d="M12.1519 14.3123C11.5781 14.3123 11.0886 14.5401 10.6835 14.9958C10.2785 15.4515 10.0759 15.9831 10.0759 16.5907C10.0759 17.2321 10.2785 17.7722 10.6835 18.211C11.0886 18.6498 11.5781 18.8692 12.1519 18.8692C12.7595 18.8692 13.2658 18.6498 13.6709 18.211C14.0759 17.7722 14.2785 17.2321 14.2785 16.5907C14.2785 15.9831 14.0759 15.4515 13.6709 14.9958C13.2658 14.5401 12.7595 14.3123 12.1519 14.3123ZM19.6456 14.3123C19.0717 14.3123 18.5823 14.5401 18.1772 14.9958C17.7721 15.4515 17.5696 15.9831 17.5696 16.5907C17.5696 17.2321 17.7721 17.7722 18.1772 18.211C18.5823 18.6498 19.0717 18.8692 19.6456 18.8692C20.2532 18.8692 20.7595 18.6498 21.1646 18.211C21.5696 17.7722 21.7721 17.2321 21.7721 16.5907C21.7721 15.9831 21.5696 15.4515 21.1646 14.9958C20.7595 14.5401 20.2532 14.3123 19.6456 14.3123ZM21.7215 23.8819C21.7215 23.8819 21.5696 23.7047 21.2658 23.3502C20.962 22.9958 20.6582 22.6161 20.3544 22.211C21.7046 21.8397 22.6582 21.3418 23.2152 20.7173C23.7722 20.0928 24.0506 19.7806 24.0506 19.7806C23.6456 20.0507 23.2405 20.2869 22.8354 20.4895C22.4304 20.692 22.0591 20.8608 21.7215 20.9958C21.2152 21.2321 20.7089 21.4177 20.2025 21.5528C19.6962 21.6878 19.2068 21.8059 18.7342 21.9072C17.7553 22.076 16.8186 22.1435 15.9241 22.1097C15.0295 22.076 14.1941 21.9916 13.4177 21.8566C12.8439 21.7553 12.3038 21.6287 11.7975 21.4768C11.2911 21.3249 10.8186 21.1646 10.3797 20.9958C10.1435 20.8945 9.89873 20.7848 9.64557 20.6667C9.3924 20.5485 9.14768 20.422 8.91139 20.2869C8.87764 20.2532 8.84388 20.2363 8.81013 20.2363C8.77637 20.2363 8.74262 20.2194 8.70886 20.1857C8.70886 20.1857 8.70042 20.1772 8.68355 20.1604C8.66667 20.1435 8.65823 20.135 8.65823 20.135C8.4557 20.0338 8.3038 19.9494 8.20253 19.8819C8.10126 19.8144 8.05063 19.7806 8.05063 19.7806C8.05063 19.7806 8.32911 20.0844 8.88608 20.692C9.44304 21.2996 10.3629 21.8059 11.6456 22.211C11.3418 22.5823 11.038 22.9536 10.7342 23.3249C10.4304 23.6962 10.2785 23.8819 10.2785 23.8819C8.01687 23.8144 6.40507 23.2827 5.44304 22.2869C4.48101 21.2912 4 20.7933 4 20.7933C4 17.4852 4.49788 14.6583 5.49367 12.3123C6.48946 9.96625 6.98734 8.79327 6.98734 8.79327C8.47258 7.71309 9.8059 7.08863 10.9873 6.91985C12.1688 6.75107 12.7595 6.66669 12.7595 6.66669L12.962 6.91985C11.1055 7.45994 9.7384 8.04221 8.86076 8.66669C7.98312 9.29116 7.5443 9.60339 7.5443 9.60339C7.5443 9.60339 7.65401 9.54432 7.87342 9.42618C8.09283 9.30803 8.38818 9.16458 8.75949 8.9958C9.87342 8.52322 10.8354 8.20255 11.6456 8.03377C12.4557 7.865 13.0464 7.76373 13.4177 7.72998C13.4852 7.69622 13.5443 7.67935 13.5949 7.67935C13.6456 7.67935 13.7046 7.67935 13.7722 7.67935C14.4135 7.57808 15.0802 7.52745 15.7722 7.52745C16.4641 7.52745 17.1814 7.5612 17.924 7.62871C18.903 7.72998 19.9072 7.94095 20.9367 8.26162C21.9662 8.5823 23.0211 9.02955 24.1013 9.60339C24.1013 9.60339 23.6878 9.2996 22.8608 8.692C22.0337 8.0844 20.7426 7.51057 18.9873 6.97048L19.2911 6.66669C19.2911 6.66669 19.8819 6.75107 21.0633 6.91985C22.2447 7.08863 23.5612 7.72997 25.0127 8.8439C25.0127 8.8439 25.5105 10.0084 26.5063 12.3376C27.5021 14.6667 28 17.4852 28 20.7933C28 20.7933 27.519 21.2912 26.557 22.2869C25.5949 23.2827 23.9831 23.8144 21.7215 23.8819Z" fill="white"/>
</svg>
