<svg width="49" height="48" viewBox="0 0 49 48" fill="none" xmlns="http://www.w3.org/2000/svg">
<circle cx="24.6665" cy="24" r="24" fill="black"/>
<path d="M34.6928 17.9183H31.4537C31.0764 17.9183 30.7173 17.7564 30.4675 17.4745L29.1536 15.9902C28.958 15.7686 28.6761 15.6426 28.3812 15.6426C28.0863 15.6426 27.8045 15.7694 27.6089 15.9902L26.4821 17.2636C26.1131 17.68 25.5837 17.9191 25.0276 17.9191H7.29763C6.79268 19.3583 6.46343 20.8785 6.33203 22.4553H23.0696C23.3638 22.4553 23.6456 22.3353 23.8489 22.123L25.4073 20.4966C25.6021 20.2934 25.871 20.1788 26.1521 20.1788H26.2163C26.5119 20.1788 26.793 20.3056 26.9886 20.5271L28.3018 22.0114C28.5516 22.2941 28.9106 22.4553 29.288 22.4553H42.9501C42.8187 20.8778 42.4894 19.3575 41.9845 17.9191H34.692L34.6928 17.9183Z" fill="white"/>
<path d="M16.5145 31.9938C16.8086 31.9938 17.0905 31.8738 17.2937 31.6615L18.8521 30.0351C19.0469 29.8319 19.3158 29.7173 19.5969 29.7173H19.6611C19.9567 29.7173 20.2379 29.8441 20.4334 30.0649L21.7466 31.5492C21.9964 31.8318 22.3555 31.993 22.7328 31.993H41.2473C41.941 30.5599 42.449 29.0221 42.7515 27.411H24.9803C24.6029 27.411 24.2439 27.249 23.9941 26.9671L22.6809 25.4828C22.4853 25.2613 22.2034 25.1353 21.9086 25.1353C21.6137 25.1353 21.3318 25.2621 21.1362 25.4828L20.0094 26.7563C19.6405 27.1726 19.1111 27.4118 18.5542 27.4118H6.6377C6.94021 29.0229 7.44898 30.5607 8.14186 31.9938H16.5137H16.5145Z" fill="white"/>
<path d="M29.6472 12.9604C29.9413 12.9604 30.2232 12.8405 30.4264 12.6281L31.9848 11.0017C32.1796 10.7985 32.4485 10.6839 32.7296 10.6839H32.7938C33.0894 10.6839 33.3706 10.8107 33.5661 11.0323L34.8793 12.5166C35.1291 12.7992 35.4882 12.9604 35.8656 12.9604H39.3865C36.0336 8.50366 30.7006 5.62061 24.6931 5.62061C18.6856 5.62061 13.3527 8.50366 9.99902 12.9604H29.6472Z" fill="white"/>
<path d="M22.5377 36.5345H17.7227C17.3453 36.5345 16.9863 36.3726 16.7365 36.0907L15.4233 34.6064C15.2277 34.3848 14.9458 34.2588 14.6509 34.2588C14.3561 34.2588 14.0742 34.3856 13.8786 34.6064L12.7518 35.8798C12.3828 36.2962 11.8534 36.5353 11.2965 36.5353H11.2217C14.5761 40.1296 19.3529 42.3793 24.6568 42.3793C29.9608 42.3793 34.7368 40.1296 38.092 36.5353H22.5377V36.5345Z" fill="white"/>
</svg>
