<svg width="49" height="48" viewBox="0 0 49 48" fill="none" xmlns="http://www.w3.org/2000/svg">
<path d="M24.3336 48C37.5885 48 48.3337 37.2548 48.3337 24C48.3337 10.7452 37.5885 0 24.3336 0C11.0787 0 0.333496 10.7452 0.333496 24C0.333496 37.2548 11.0787 48 24.3336 48Z" fill="black"/>
<path d="M25.3654 11.8626C25.3654 11.2758 24.9155 10.8 24.3605 10.8L24.3593 10.8C23.8048 10.8 23.3549 11.2758 23.3549 11.8626V16.7186L19.6522 12.8119C19.2594 12.3974 18.6232 12.3982 18.2311 12.8136L18.2303 12.8145C17.8386 13.2295 17.8393 13.9022 18.2321 14.3167L21.9009 18.1877L16.3391 18.1828C15.7839 18.1823 15.334 18.6576 15.3335 19.2445L15.3335 19.2458C15.333 19.832 15.7822 20.3082 16.3374 20.3087L21.9462 20.3136L18.2452 24.2406C17.8535 24.6563 17.8546 25.329 18.2477 25.7433L18.2486 25.7442C18.6413 26.158 19.2776 26.1569 19.6693 25.7412L23.3549 21.8305V32.0831L21.3058 32.0813C20.7511 32.0808 20.3008 32.5561 20.3003 33.143L20.3003 33.1443C20.2999 33.7305 20.7494 34.2067 21.3042 34.2071L23.3549 34.2089V36.396C23.3549 36.9828 23.8048 37.4586 24.3593 37.4586H24.3605C24.9155 37.4586 25.3654 36.9828 25.3654 36.396V34.2107L27.3283 34.2124C27.8833 34.2129 28.3336 33.7376 28.334 33.1513L28.334 33.1501C28.3345 32.5632 27.885 32.0871 27.33 32.0866L25.3654 32.0849L25.3654 21.8431L29.0467 25.7273C29.4396 26.1417 30.0758 26.141 30.4675 25.726L30.4683 25.7251C30.8603 25.3097 30.8597 24.6369 30.4668 24.2224L26.7661 20.3178L32.3279 20.3227C32.8827 20.3232 33.333 19.8479 33.3335 19.2616L33.3335 19.2603C33.334 18.6735 32.8843 18.1973 32.3296 18.1968L26.784 18.192L30.4534 14.2985C30.8451 13.8828 30.844 13.2101 30.4512 12.7962L30.4504 12.7954C30.0573 12.3811 29.421 12.3822 29.0293 12.7979L25.3654 16.6855L25.3654 11.8626Z" fill="white"/>
</svg>
