<svg width="49" height="48" viewBox="0 0 49 48" fill="none" xmlns="http://www.w3.org/2000/svg">
<g clip-path="url(#clip0_836_5278)">
<path fill-rule="evenodd" clip-rule="evenodd" d="M48.6665 24C48.6665 37.255 37.9216 48 24.6669 48C11.4121 48 0.666504 37.255 0.666504 24C0.666504 10.745 11.4121 0 24.6669 0C37.9216 0 48.6665 10.745 48.6665 24Z" fill="#2D374B"/>
<path d="M28.7535 22.4948L31.3971 18.0087L38.5226 29.1079L38.5259 31.2379L38.5027 16.5805C38.4858 16.2222 38.2956 15.8944 37.9921 15.7012L25.1635 8.32137C24.8634 8.1739 24.4828 8.17546 24.1833 8.32595C24.1429 8.34628 24.1048 8.36829 24.0685 8.39231L24.0238 8.42047L11.5716 15.637L11.5232 15.6589C11.4611 15.6875 11.3983 15.7238 11.3394 15.7661C11.1033 15.9354 10.9465 16.1858 10.8957 16.4667C10.8882 16.5092 10.8826 16.5526 10.8799 16.5963L10.8994 28.5406L17.5365 18.2526C18.3721 16.8884 20.1928 16.449 21.8829 16.4729L23.8665 16.5253L12.1789 35.2705L13.5566 36.0639L25.3844 16.5443L30.6122 16.5253L18.815 36.5374L23.7311 39.3653L24.3185 39.7031C24.567 39.8041 24.8599 39.8092 25.1104 39.7188L38.1193 32.1793L35.6322 33.6206L28.7535 22.4948ZM29.7621 37.0227L24.7966 29.2289L27.8277 24.0851L34.3488 34.3644L29.7621 37.0227Z" fill="#2D374B"/>
<path d="M24.7969 29.2293L29.7623 37.0231L34.3492 34.3647L27.828 24.0854L24.7969 29.2293Z" fill="#28A0F0"/>
<path d="M38.5264 31.2379L38.523 29.108L31.3975 18.0088L28.7539 22.4948L35.6326 33.6207L38.1198 32.1794C38.3637 31.9813 38.5113 31.6905 38.5268 31.3767L38.5264 31.2379Z" fill="#28A0F0"/>
<path d="M8.66662 33.2468L12.1788 35.2707L23.8665 16.5255L21.8828 16.4731C20.1928 16.4492 18.3722 16.8886 17.5365 18.2528L10.8994 28.5408L8.6665 31.9718V33.2468H8.66662Z" fill="white"/>
<path d="M30.6126 16.5254L25.3849 16.5444L13.5571 36.0639L17.6912 38.4445L18.8155 36.5375L30.6126 16.5254Z" fill="white"/>
<path d="M40.7289 16.4985C40.6853 15.4051 40.0933 14.4041 39.166 13.8214L26.1693 6.34672C25.252 5.88476 24.1061 5.8842 23.1874 6.34639C23.0788 6.40113 10.5483 13.669 10.5483 13.669C10.3749 13.7521 10.2079 13.8512 10.0507 13.9636C9.22294 14.5569 8.71834 15.4788 8.6665 16.4918V31.9719L10.8994 28.5408L10.8798 16.5965C10.8825 16.5528 10.888 16.5099 10.8957 16.4675C10.9461 16.1864 11.103 15.9357 11.3393 15.7663C11.3983 15.7241 24.1427 8.34652 24.1833 8.32618C24.4829 8.1757 24.8635 8.17413 25.1634 8.3216L37.992 15.7014C38.2955 15.8947 38.4858 16.2225 38.5027 16.5807V31.3769C38.4871 31.6907 38.3631 31.9814 38.1191 32.1796L35.632 33.6209L34.3488 34.3646L29.7619 37.023L25.1103 39.719C24.8597 39.8095 24.5668 39.8045 24.3184 39.7034L18.8148 36.5377L17.6905 38.4445L22.6364 41.2924C22.8 41.3853 22.9458 41.4678 23.0653 41.535C23.2505 41.6389 23.3766 41.7083 23.4212 41.7299C23.7728 41.9006 24.2785 42 24.7343 42C25.1522 42 25.5596 41.9232 25.9452 41.7722L39.4561 33.947C40.2316 33.3462 40.6878 32.44 40.7289 31.4583V16.4985Z" fill="#96BEDC"/>
</g>
<defs>
<clipPath id="clip0_836_5278">
<rect width="48" height="48" fill="white" transform="translate(0.666504)"/>
</clipPath>
</defs>
</svg>
