<svg width="48" height="48" viewBox="0 0 48 48" fill="none" xmlns="http://www.w3.org/2000/svg">
<g clip-path="url(#clip0_836_5319)">
<path fill-rule="evenodd" clip-rule="evenodd" d="M48 24C48 37.255 37.2551 48 24.0004 48C10.7456 48 0 37.255 0 24C0 10.745 10.7456 0 24.0004 0C37.2551 0 48 10.745 48 24Z" fill="#8247E5"/>
<path d="M32.2298 18.6021C31.6449 18.268 30.893 18.268 30.2245 18.6021L25.5457 21.3581L22.3708 23.1119L17.7755 25.8679C17.1906 26.202 16.4386 26.202 15.7702 25.8679L12.1775 23.6965C11.5927 23.3624 11.1749 22.6943 11.1749 21.9427V17.7669C11.1749 17.0988 11.5091 16.4307 12.1775 16.0131L15.7702 13.9252C16.3551 13.5912 17.107 13.5912 17.7755 13.9252L21.3681 16.0966C21.953 16.4307 22.3708 17.0988 22.3708 17.8504V20.6064L25.5457 18.7691V15.9296C25.5457 15.2615 25.2115 14.5933 24.5431 14.1758L17.859 10.2505C17.2742 9.91648 16.5222 9.91648 15.8538 10.2505L9.00261 14.2593C8.3342 14.5933 8 15.2615 8 15.9296V23.78C8 24.4481 8.3342 25.1163 9.00261 25.5338L15.7702 29.4591C16.3551 29.7931 17.107 29.7931 17.7755 29.4591L22.3708 26.7866L25.5457 24.9492L30.141 22.2767C30.7258 21.9427 31.4778 21.9427 32.1462 22.2767L35.7389 24.3646C36.3238 24.6987 36.7415 25.3668 36.7415 26.1185V30.2942C36.7415 30.9623 36.4073 31.6305 35.7389 32.048L32.2298 34.1359C31.6449 34.47 30.893 34.47 30.2245 34.1359L26.6319 32.048C26.047 31.714 25.6292 31.0459 25.6292 30.2942V27.6217L22.4543 29.4591V32.2151C22.4543 32.8832 22.7885 33.5513 23.4569 33.9689L30.2245 37.8941C30.8094 38.2282 31.5614 38.2282 32.2298 37.8941L38.9974 33.9689C39.5822 33.6348 40 32.9667 40 32.2151V24.2811C40 23.613 39.6658 22.9449 38.9974 22.5273L32.2298 18.6021Z" fill="white"/>
</g>
<defs>
<clipPath id="clip0_836_5319">
<rect width="48" height="48" fill="white"/>
</clipPath>
</defs>
</svg>
