<svg width="24" height="24" viewBox="0 0 24 24" fill="none" xmlns="http://www.w3.org/2000/svg">
<path d="M13 6.5C13 6.22386 12.7761 6 12.5 6H11.5C11.2239 6 11 6.22386 11 6.5V12.5C11 12.7761 10.7761 13 10.5 13H4.5C4.22386 13 4 13.2239 4 13.5V14.5C4 14.7761 4.22386 15 4.5 15H10.5C10.7761 15 11 15.2239 11 15.5V21.5C11 21.7761 11.2239 22 11.5 22H12.5C12.7761 22 13 21.7761 13 21.5V15.5C13 15.2239 13.2239 15 13.5 15H19.5C19.7761 15 20 14.7761 20 14.5V13.5C20 13.2239 19.7761 13 19.5 13H13.5C13.2239 13 13 12.7761 13 12.5V6.5Z" fill="#000A1E"/>
<path d="M13 4.5C13 4.22386 12.7761 4 12.5 4H11.5C11.2239 4 11 4.22386 11 4.5V10.5C11 10.7761 10.7761 11 10.5 11H4.5C4.22386 11 4 11.2239 4 11.5V12.5C4 12.7761 4.22386 13 4.5 13H10.5C10.7761 13 11 13.2239 11 13.5V19.5C11 19.7761 11.2239 20 11.5 20H12.5C12.7761 20 13 19.7761 13 19.5V13.5C13 13.2239 13.2239 13 13.5 13H19.5C19.7761 13 20 12.7761 20 12.5V11.5C20 11.2239 19.7761 11 19.5 11H13.5C13.2239 11 13 10.7761 13 10.5V4.5Z" fill="#8992A3"/>
</svg>
