<svg width="24" height="24" viewBox="0 0 24 24" fill="none" xmlns="http://www.w3.org/2000/svg">
<path d="M10.4658 11.8662C9.99226 11.0621 9.72684 10.1236 9.72684 9.14704C9.72684 7.50025 10.4658 6.04524 11.6218 5.04936C11.0719 3.84263 9.85932 3 8.45702 3C6.54297 3 4.97073 4.57019 4.97073 6.52321C4.97073 7.61483 5.46339 8.61057 6.25906 9.24233C4.34561 10.3339 3 12.613 3 14.2977C3 16.4231 3.71992 17.2278 7.58557 17.3231C7.71799 15.4087 8.85542 13.3213 10.4658 11.8662Z" fill="url(#paint0_linear_1298_591)"/>
<path d="M17.4373 12.1528C18.2902 11.4446 18.8396 10.3723 18.8396 9.1655C18.8396 7.02084 17.1343 5.29761 15.0312 5.29761C12.9281 5.29761 11.2228 7.02099 11.2228 9.14635C11.2228 10.3525 11.7721 11.4247 12.625 12.1337C10.5214 13.3211 9.0625 15.8299 9.0625 17.687C9.0625 20.1765 9.97208 20.9999 15.0311 20.9999C20.0902 20.9999 20.9998 20.1765 20.9998 17.687C20.9998 15.8299 19.5408 13.3211 17.4372 12.153L17.4373 12.1528Z" fill="url(#paint1_linear_1298_591)"/>
<defs>
<linearGradient id="paint0_linear_1298_591" x1="3" y1="17.3231" x2="12.4427" y2="16.7598" gradientUnits="userSpaceOnUse">
<stop stop-color="#C80412"/>
<stop offset="0.352102" stop-color="#E81528"/>
<stop offset="0.694964" stop-color="#EF6000"/>
<stop offset="1" stop-color="#EE8800"/>
</linearGradient>
<linearGradient id="paint1_linear_1298_591" x1="9.0625" y1="20.9999" x2="22.1088" y2="20.0169" gradientUnits="userSpaceOnUse">
<stop stop-color="#C80412"/>
<stop offset="0.352102" stop-color="#E81528"/>
<stop offset="0.694964" stop-color="#EF6000"/>
<stop offset="1" stop-color="#EE8800"/>
</linearGradient>
</defs>
</svg>
