<svg width="49" height="37" viewBox="0 0 49 37" fill="none" xmlns="http://www.w3.org/2000/svg">
<path d="M48.2657 14.1547V26.9915C48.2646 27.9197 47.8753 28.8095 47.1831 29.4659C46.4908 30.1222 45.5523 30.4914 44.5734 30.4924H43.3426V35.1603C43.3425 35.3821 43.2757 35.5993 43.1502 35.7865C43.0246 35.9736 42.8454 36.123 42.6336 36.2171C42.4217 36.3112 42.186 36.3461 41.954 36.3178C41.722 36.2895 41.5032 36.1991 41.3234 36.0573L34.2813 30.4924H22.4195C21.4406 30.4914 20.5021 30.1222 19.8099 29.4659C19.1177 28.8095 18.7283 27.9197 18.7272 26.9915V25.8245H31.0349C32.6664 25.8227 34.2306 25.2073 35.3842 24.1135C36.5379 23.0196 37.1868 21.5365 37.1888 19.9896V10.6537H44.5734C45.5523 10.6548 46.4908 11.0239 47.1831 11.6803C47.8753 12.3366 48.2646 13.2265 48.2657 14.1547ZM31.0349 23.4905H14.3703L7.35344 31.2509C7.18979 31.4317 6.9717 31.5607 6.72848 31.6205C6.48526 31.6803 6.22856 31.6681 5.99288 31.5855C5.7572 31.5029 5.55382 31.3539 5.41007 31.1585C5.26632 30.9631 5.1891 30.7306 5.18876 30.4924V23.4905H3.95799C2.97906 23.4895 2.04053 23.1203 1.34833 22.464C0.656116 21.8077 0.266761 20.9178 0.265686 19.9896V3.65185C0.266761 2.72366 0.656116 1.83377 1.34833 1.17744C2.04053 0.521104 2.97906 0.151929 3.95799 0.150909H31.0349C32.0138 0.151929 32.9524 0.521104 33.6446 1.17744C34.3368 1.83377 34.7262 2.72366 34.7272 3.65185V19.9896C34.7262 20.9178 34.3368 21.8077 33.6446 22.464C32.9524 23.1203 32.0138 23.4895 31.0349 23.4905ZM27.3426 14.1547C27.3426 13.8452 27.2129 13.5483 26.9821 13.3295C26.7513 13.1106 26.4383 12.9877 26.1118 12.9877H8.88107C8.55465 12.9877 8.2416 13.1106 8.01079 13.3295C7.77997 13.5483 7.6503 13.8452 7.6503 14.1547C7.6503 14.4642 7.77997 14.761 8.01079 14.9799C8.2416 15.1987 8.55465 15.3217 8.88107 15.3217H26.1118C26.4383 15.3217 26.7513 15.1987 26.9821 14.9799C27.2129 14.761 27.3426 14.4642 27.3426 14.1547ZM27.3426 8.31977C27.3426 8.01027 27.2129 7.71344 26.9821 7.49459C26.7513 7.27574 26.4383 7.15279 26.1118 7.15279H8.88107C8.55465 7.15279 8.2416 7.27574 8.01079 7.49459C7.77997 7.71344 7.6503 8.01027 7.6503 8.31977C7.6503 8.62928 7.77997 8.9261 8.01079 9.14495C8.2416 9.3638 8.55465 9.48675 8.88107 9.48675H26.1118C26.4383 9.48675 26.7513 9.3638 26.9821 9.14495C27.2129 8.9261 27.3426 8.62928 27.3426 8.31977Z" fill="#D0D5DF"/>
</svg>
