<svg width="49" height="48" viewBox="0 0 49 48" fill="none" xmlns="http://www.w3.org/2000/svg">
<path d="M44.5182 3.74853C39.5189 -1.24951 31.4141 -1.24951 26.4161 3.74853L19.2737 10.8882C19.8391 10.8267 20.4104 10.8002 20.9847 10.8002C22.7922 10.8002 24.5499 11.0874 26.2139 11.641L30.2612 7.59511C31.6513 6.20354 33.4999 5.43889 35.4657 5.43889C37.4317 5.43889 39.2803 6.20354 40.6703 7.59511C42.0605 8.98377 42.8249 10.8295 42.8249 12.7982C42.8249 14.764 42.0605 16.6126 40.6703 18.0013L32.7515 25.9202C31.3616 27.3118 29.5129 28.0763 27.547 28.0763C25.5782 28.0763 23.7326 27.3118 22.3412 25.9202C21.6644 25.2463 21.1371 24.4611 20.7738 23.6056C19.8714 23.6554 19.0278 24.0304 18.3832 24.6749L16.2739 26.787C16.851 27.8563 17.5922 28.8641 18.4946 29.7696C23.4925 34.7678 31.5988 34.7678 36.5981 29.7696L44.5183 21.8477C49.5148 16.85 49.5148 8.74658 44.5182 3.74853Z" fill="#D0D5DF"/>
<path d="M27.6319 37.1965C25.8214 37.1965 24.0461 36.9036 22.3441 36.3264L18.2689 40.4018C16.8803 41.7934 15.0318 42.558 13.0659 42.558C11.1001 42.558 9.25453 41.7934 7.86287 40.4018C6.4713 39.013 5.70665 37.1646 5.70665 35.1987C5.70665 33.2328 6.4713 31.3841 7.86287 29.9927L15.7817 22.0739C17.1732 20.6852 19.019 19.9206 20.9848 19.9206C22.9535 19.9206 24.7992 20.6852 26.1891 22.0739C26.866 22.7506 27.3945 23.5358 27.7595 24.3912C28.6648 24.3443 29.51 23.9664 30.1545 23.3219L32.2609 21.2126C31.6838 20.1402 30.9411 19.1325 30.0373 18.2272C25.0394 13.2292 16.9331 13.2292 11.9352 18.2272L4.01639 26.149C-0.984467 31.1473 -0.984467 39.2504 4.01639 44.2513C9.01434 49.2496 17.1177 49.2496 22.1156 44.2513L29.2462 37.1206C28.7146 37.1702 28.177 37.1968 27.6349 37.1968L27.6319 37.1965Z" fill="#D0D5DF"/>
</svg>
