<svg width="49" height="49" viewBox="0 0 49 49" fill="none" xmlns="http://www.w3.org/2000/svg">
<path d="M44.5182 3.91552C39.5189 -1.08252 31.4141 -1.08252 26.4161 3.91552L19.2737 11.0552C19.8391 10.9937 20.4104 10.9672 20.9847 10.9672C22.7922 10.9672 24.5499 11.2544 26.2139 11.808L30.2612 7.7621C31.6513 6.37053 33.4999 5.60588 35.4657 5.60588C37.4317 5.60588 39.2803 6.37053 40.6703 7.7621C42.0605 9.15076 42.8249 10.9965 42.8249 12.9652C42.8249 14.931 42.0605 16.7796 40.6703 18.1683L32.7515 26.0872C31.3616 27.4788 29.5129 28.2433 27.547 28.2433C25.5782 28.2433 23.7326 27.4788 22.3412 26.0872C21.6644 25.4133 21.1371 24.6281 20.7738 23.7726C19.8714 23.8224 19.0278 24.1974 18.3832 24.8418L16.2739 26.954C16.851 28.0232 17.5922 29.0311 18.4946 29.9365C23.4925 34.9348 31.5988 34.9348 36.5981 29.9365L44.5183 22.0147C49.5148 17.017 49.5148 8.91357 44.5182 3.91552Z" fill="url(#paint0_linear_368_373)"/>
<path d="M27.6319 37.3635C25.8214 37.3635 24.0461 37.0706 22.3441 36.4934L18.2689 40.5687C16.8803 41.9604 15.0318 42.725 13.0659 42.725C11.1001 42.725 9.25453 41.9604 7.86287 40.5687C6.4713 39.18 5.70665 37.3316 5.70665 35.3657C5.70665 33.3998 6.4713 31.5511 7.86287 30.1597L15.7817 22.2409C17.1732 20.8522 19.019 20.0876 20.9848 20.0876C22.9535 20.0876 24.7992 20.8522 26.1891 22.2409C26.866 22.9176 27.3945 23.7028 27.7595 24.5582C28.6648 24.5113 29.51 24.1334 30.1545 23.4889L32.2609 21.3796C31.6838 20.3072 30.9411 19.2995 30.0373 18.3942C25.0394 13.3962 16.9331 13.3962 11.9352 18.3942L4.01639 26.316C-0.984467 31.3142 -0.984467 39.4174 4.01639 44.4183C9.01434 49.4166 17.1177 49.4166 22.1156 44.4183L29.2462 37.2876C28.7146 37.3372 28.177 37.3638 27.6349 37.3638L27.6319 37.3635Z" fill="url(#paint1_linear_368_373)"/>
<defs>
<linearGradient id="paint0_linear_368_373" x1="16.2739" y1="16.9261" x2="46.8997" y2="16.9261" gradientUnits="userSpaceOnUse">
<stop offset="0.0001" stop-color="#FE1F02"/>
<stop offset="1" stop-color="#FF7727"/>
</linearGradient>
<linearGradient id="paint1_linear_368_373" x1="0.265747" y1="31.4063" x2="30.8948" y2="31.4063" gradientUnits="userSpaceOnUse">
<stop offset="0.0001" stop-color="#FE1F02"/>
<stop offset="1" stop-color="#FF7727"/>
</linearGradient>
</defs>
</svg>
