<svg width="49" height="37" viewBox="0 0 49 37" fill="none" xmlns="http://www.w3.org/2000/svg">
<path d="M48.2657 14.498V27.3348C48.2646 28.263 47.8753 29.1529 47.1831 29.8092C46.4908 30.4655 45.5523 30.8347 44.5734 30.8357H43.3426V35.5036C43.3425 35.7255 43.2757 35.9426 43.1502 36.1298C43.0246 36.3169 42.8454 36.4663 42.6336 36.5604C42.4217 36.6545 42.186 36.6894 41.954 36.6611C41.722 36.6328 41.5032 36.5425 41.3234 36.4006L34.2813 30.8357H22.4195C21.4406 30.8347 20.5021 30.4655 19.8099 29.8092C19.1177 29.1529 18.7283 28.263 18.7272 27.3348V26.1678H31.0349C32.6664 26.166 34.2306 25.5506 35.3842 24.4568C36.5379 23.3629 37.1868 21.8799 37.1888 20.3329V10.9971H44.5734C45.5523 10.9981 46.4908 11.3673 47.1831 12.0236C47.8753 12.6799 48.2646 13.5698 48.2657 14.498ZM31.0349 23.8338H14.3703L7.35344 31.5943C7.18979 31.775 6.9717 31.904 6.72848 31.9638C6.48526 32.0236 6.22856 32.0114 5.99288 31.9288C5.7572 31.8462 5.55382 31.6972 5.41007 31.5018C5.26632 31.3064 5.1891 31.074 5.18876 30.8357V23.8338H3.95799C2.97906 23.8328 2.04053 23.4636 1.34833 22.8073C0.656116 22.151 0.266761 21.2611 0.265686 20.3329V3.99517C0.266761 3.06698 0.656116 2.17709 1.34833 1.52076C2.04053 0.864427 2.97906 0.495252 3.95799 0.494232H31.0349C32.0138 0.495252 32.9524 0.864427 33.6446 1.52076C34.3368 2.17709 34.7262 3.06698 34.7272 3.99517V20.3329C34.7262 21.2611 34.3368 22.151 33.6446 22.8073C32.9524 23.4636 32.0138 23.8328 31.0349 23.8338ZM27.3426 14.498C27.3426 14.1885 27.2129 13.8917 26.9821 13.6728C26.7513 13.454 26.4383 13.331 26.1118 13.331H8.88107C8.55465 13.331 8.2416 13.454 8.01079 13.6728C7.77997 13.8917 7.6503 14.1885 7.6503 14.498C7.6503 14.8075 7.77997 15.1043 8.01079 15.3232C8.2416 15.542 8.55465 15.665 8.88107 15.665H26.1118C26.4383 15.665 26.7513 15.542 26.9821 15.3232C27.2129 15.1043 27.3426 14.8075 27.3426 14.498ZM27.3426 8.6631C27.3426 8.35359 27.2129 8.05677 26.9821 7.83791C26.7513 7.61906 26.4383 7.49612 26.1118 7.49612H8.88107C8.55465 7.49612 8.2416 7.61906 8.01079 7.83791C7.77997 8.05677 7.6503 8.35359 7.6503 8.6631C7.6503 8.9726 7.77997 9.26943 8.01079 9.48828C8.2416 9.70713 8.55465 9.83008 8.88107 9.83008H26.1118C26.4383 9.83008 26.7513 9.70713 26.9821 9.48828C27.2129 9.26943 27.3426 8.9726 27.3426 8.6631Z" fill="url(#paint0_linear_368_365)"/>
<defs>
<linearGradient id="paint0_linear_368_365" x1="0.265686" y1="18.5824" x2="46.2162" y2="18.5824" gradientUnits="userSpaceOnUse">
<stop offset="0.0001" stop-color="#FE1F02"/>
<stop offset="1" stop-color="#FF7727"/>
</linearGradient>
</defs>
</svg>
