<svg width="38" height="37" viewBox="0 0 38 37" fill="none" xmlns="http://www.w3.org/2000/svg">
<path d="M17.0502 2.05018C17.6489 0.207561 20.2557 0.207559 20.8544 2.05018L23.8916 11.3977C24.1593 12.2218 24.9272 12.7797 25.7937 12.7797H35.6223C37.5597 12.7797 38.3653 15.2589 36.7978 16.3977L28.8464 22.1748C28.1454 22.6841 27.8521 23.5868 28.1198 24.4109L31.157 33.7584C31.7557 35.601 29.6467 37.1333 28.0793 35.9945L20.1278 30.2174C19.4269 29.7081 18.4777 29.7081 17.7767 30.2174L9.82522 35.9945C8.2578 37.1333 6.14883 35.601 6.74754 33.7584L9.78473 24.4109C10.0525 23.5868 9.75916 22.6841 9.05819 22.1748L1.10671 16.3977C-0.460715 15.2589 0.344836 12.7797 2.28228 12.7797H12.1108C12.9773 12.7797 13.7452 12.2217 14.013 11.3977L17.0502 2.05018Z" fill="url(#paint0_linear_368_377)"/>
<defs>
<linearGradient id="paint0_linear_368_377" x1="-5.04773" y1="20.1961" x2="40.9027" y2="20.1961" gradientUnits="userSpaceOnUse">
<stop offset="0.0001" stop-color="#FE1F02"/>
<stop offset="1" stop-color="#FF7727"/>
</linearGradient>
</defs>
</svg>
