<svg width="38" height="37" viewBox="0 0 38 37" fill="none" xmlns="http://www.w3.org/2000/svg">
<path d="M17.0502 2.1881C17.6489 0.345474 20.2557 0.345472 20.8544 2.18809L23.8916 11.5356C24.1593 12.3597 24.9272 12.9176 25.7937 12.9176H35.6223C37.5597 12.9176 38.3653 15.3968 36.7978 16.5356L28.8464 22.3127C28.1454 22.822 27.8521 23.7247 28.1198 24.5488L31.157 33.8963C31.7557 35.7389 29.6467 37.2712 28.0793 36.1324L20.1278 30.3553C19.4269 29.846 18.4777 29.846 17.7767 30.3553L9.82522 36.1324C8.2578 37.2712 6.14883 35.7389 6.74754 33.8963L9.78473 24.5488C10.0525 23.7247 9.75916 22.822 9.05819 22.3127L1.10671 16.5356C-0.460715 15.3968 0.344836 12.9176 2.28228 12.9176H12.1108C12.9773 12.9176 13.7452 12.3597 14.013 11.5356L17.0502 2.1881Z" fill="#D9D9D9"/>
</svg>
