<svg width="199" height="64" viewBox="0 0 199 64" fill="none" xmlns="http://www.w3.org/2000/svg">
<path d="M13.5752 22.7339L26.3323 15.3687L39.0892 22.7339L48.883 17.0198L26.3323 4L3.78125 17.0198L13.5752 22.7339Z" fill="white"/>
<path d="M10.8651 27.5647L1.01953 21.8203V47.844L23.5635 60.8597V49.491L10.8651 42.1596V27.5647Z" fill="white"/>
<path d="M29.1016 60.8597V49.491L41.8 42.1596V27.5645L51.6456 21.8203V47.844L29.1016 60.8597Z" fill="white"/>
<path d="M116.556 22.6825C116.222 23.0165 116.055 23.4187 116.055 23.8892C116.055 24.375 116.222 24.7847 116.556 25.1188C116.905 25.4375 117.322 25.5968 117.808 25.5968C118.293 25.5968 118.703 25.4375 119.037 25.1188C119.386 24.7847 119.561 24.375 119.561 23.8892C119.561 23.4187 119.386 23.0165 119.037 22.6825C118.703 22.3486 118.293 22.1816 117.808 22.1816C117.322 22.1816 116.905 22.3486 116.556 22.6825Z" fill="white"/>
<path d="M90.0525 22.6816H87.1836V39.0746H90.0525V33.0866C90.0676 32.6767 90.151 32.2746 90.3028 31.8799C90.4546 31.4701 90.6596 31.1134 90.9177 30.8099C91.1756 30.5063 91.4792 30.2634 91.8284 30.0813C92.1926 29.884 92.5873 29.7853 93.0123 29.7853C93.6953 29.7853 94.2418 29.9977 94.6516 30.4227C95.0765 30.8478 95.2891 31.4549 95.2891 32.2441V39.0746H98.2262V31.3107C98.2262 30.6732 98.1275 30.0889 97.9302 29.5575C97.7479 29.0264 97.4748 28.571 97.1105 28.1915C96.7614 27.7969 96.3288 27.4934 95.8127 27.2808C95.2967 27.0684 94.7198 26.9621 94.0824 26.9621C93.2172 26.9621 92.4431 27.1442 91.76 27.5085C91.077 27.8728 90.5078 28.3736 90.0525 29.0112V22.6816Z" fill="white"/>
<path d="M69.7006 28.3969C69.2909 29.3531 69.0859 30.3701 69.0859 31.4478C69.0859 32.5406 69.2909 33.5651 69.7006 34.5215C70.1257 35.4625 70.6949 36.2898 71.4083 37.0031C72.1218 37.7165 72.9565 38.2782 73.9128 38.688C74.869 39.0977 75.8936 39.3027 76.9864 39.3027C77.9579 39.3027 78.861 39.1661 79.6958 38.8929C80.5458 38.6045 81.2971 38.2022 81.9499 37.6862C82.6177 37.1702 83.1794 36.5553 83.6347 35.842C84.0901 35.1286 84.4088 34.3316 84.5909 33.4514H81.2441C80.9405 34.3316 80.4092 35.0299 79.6503 35.5461C78.9065 36.0621 78.0186 36.3201 76.9864 36.3201C76.3338 36.3201 75.7191 36.1911 75.1423 35.933C74.5655 35.6749 74.057 35.3259 73.6168 34.8857C73.1918 34.4455 72.8503 33.9295 72.5923 33.3375C72.3494 32.7456 72.2279 32.1157 72.2279 31.4478C72.2279 30.78 72.3494 30.1499 72.5923 29.558C72.8503 28.966 73.1918 28.45 73.6168 28.0098C74.057 27.5696 74.5655 27.2206 75.1423 26.9625C75.7191 26.7044 76.3338 26.5754 76.9864 26.5754C78.0186 26.5754 78.9065 26.8334 79.6503 27.3496C80.4092 27.8656 80.9405 28.5639 81.2441 29.4442H84.5909C84.4088 28.5639 84.0901 27.7669 83.6347 27.0536C83.1794 26.325 82.6177 25.7103 81.9499 25.2093C81.2971 24.6933 80.5458 24.2986 79.6958 24.0254C78.861 23.737 77.9579 23.5928 76.9864 23.5928C75.8936 23.5928 74.869 23.7978 73.9128 24.2076C72.9565 24.6174 72.1218 25.179 71.4083 25.8924C70.6949 26.6059 70.1257 27.4406 69.7006 28.3969Z" fill="white"/>
<path fill-rule="evenodd" clip-rule="evenodd" d="M113.121 39.0754H110.252V37.5045C109.888 38.0661 109.402 38.5062 108.795 38.825C108.188 39.1286 107.429 39.2804 106.518 39.2804C105.683 39.2804 104.909 39.1286 104.196 38.825C103.497 38.5062 102.89 38.0737 102.374 37.5272C101.858 36.9656 101.456 36.313 101.168 35.5692C100.894 34.8103 100.758 33.9981 100.758 33.1329C100.758 32.2527 100.894 31.4406 101.168 30.6968C101.456 29.9379 101.858 29.2853 102.374 28.7388C102.89 28.1772 103.497 27.7446 104.196 27.441C104.909 27.1223 105.691 26.9629 106.541 26.9629C107.452 26.9629 108.203 27.1223 108.795 27.441C109.402 27.7446 109.888 28.1772 110.252 28.7388V27.1906H113.121V39.0754ZM110.252 32.5866C110.146 31.7972 109.804 31.137 109.228 30.6057C108.651 30.0594 107.915 29.7861 107.019 29.7861C106.518 29.7861 106.063 29.8773 105.653 30.0594C105.243 30.2415 104.894 30.4844 104.606 30.788C104.332 31.0915 104.12 31.4482 103.968 31.858C103.816 32.2679 103.74 32.7005 103.74 33.1558C103.74 33.596 103.816 34.0133 103.968 34.408C104.12 34.8027 104.332 35.1518 104.606 35.4553C104.894 35.7589 105.243 36.0018 105.653 36.1839C106.063 36.366 106.518 36.4572 107.019 36.4572C107.459 36.4572 107.869 36.3888 108.248 36.2522C108.628 36.1004 108.954 35.9031 109.228 35.6602C109.516 35.4023 109.744 35.1063 109.91 34.7722C110.093 34.4232 110.206 34.059 110.252 33.6794V32.5866Z" fill="white"/>
<path d="M122.492 27.1906H125.361V29.0803C125.801 28.4277 126.363 27.9115 127.046 27.5321C127.729 27.1526 128.511 26.9629 129.391 26.9629C130.028 26.9629 130.605 27.0692 131.121 27.2816C131.637 27.4942 132.07 27.7978 132.419 28.1923C132.783 28.5719 133.057 29.0272 133.239 29.5584C133.436 30.0897 133.535 30.6741 133.535 31.3115V39.0754H130.666V32.245C130.666 31.4557 130.446 30.8486 130.006 30.4236C129.566 29.9986 129.004 29.7861 128.321 29.7861C127.896 29.7861 127.501 29.8848 127.137 30.0821C126.788 30.2642 126.484 30.5071 126.226 30.8107C125.968 31.1143 125.763 31.4709 125.611 31.8808C125.46 32.2755 125.376 32.6776 125.361 33.0874V39.0754H122.492V27.1906Z" fill="white"/>
<path d="M140.147 23.8203H137.164V39.0748H147.136V36.3427H140.147V23.8203Z" fill="white"/>
<path fill-rule="evenodd" clip-rule="evenodd" d="M161.112 39.0754H158.244V37.5045C157.88 38.0661 157.394 38.5062 156.787 38.825C156.18 39.1286 155.421 39.2804 154.51 39.2804C153.675 39.2804 152.901 39.1286 152.188 38.825C151.49 38.5062 150.883 38.0737 150.367 37.5272C149.85 36.9656 149.448 36.313 149.16 35.5692C148.887 34.8103 148.75 33.9981 148.75 33.1329C148.75 32.2527 148.887 31.4406 149.16 30.6968C149.448 29.9379 149.85 29.2853 150.367 28.7388C150.883 28.1772 151.49 27.7446 152.188 27.441C152.901 27.1223 153.683 26.9629 154.533 26.9629C155.444 26.9629 156.195 27.1223 156.787 27.441C157.394 27.7446 157.88 28.1772 158.244 28.7388V27.1906H161.112V39.0754ZM158.244 32.5866C158.138 31.7972 157.796 31.137 157.22 30.6057C156.643 30.0594 155.907 29.7861 155.011 29.7861C154.51 29.7861 154.055 29.8773 153.645 30.0594C153.235 30.2415 152.886 30.4844 152.598 30.788C152.325 31.0915 152.112 31.4482 151.96 31.858C151.808 32.2679 151.733 32.7005 151.733 33.1558C151.733 33.596 151.808 34.0133 151.96 34.408C152.112 34.8027 152.325 35.1518 152.598 35.4553C152.886 35.7589 153.235 36.0018 153.645 36.1839C154.055 36.366 154.51 36.4572 155.011 36.4572C155.451 36.4572 155.861 36.3888 156.241 36.2522C156.62 36.1004 156.946 35.9031 157.22 35.6602C157.508 35.4023 157.736 35.1063 157.903 34.7722C158.085 34.4232 158.198 34.059 158.244 33.6794V32.5866Z" fill="white"/>
<path d="M119.24 27.1904H116.371V39.0752H119.24V27.1904Z" fill="white"/>
<path d="M167.687 38.9386L165.934 43.6516H168.735L175.155 27.1904H172.081L169.099 35.068L166.23 27.1904H163.18L167.687 38.9386Z" fill="white"/>
<path fill-rule="evenodd" clip-rule="evenodd" d="M179.03 33.7933C179.15 34.6129 179.493 35.296 180.054 35.8425C180.63 36.3888 181.374 36.662 182.286 36.662C182.878 36.662 183.401 36.533 183.857 36.2751C184.326 36.0018 184.669 35.6678 184.881 35.2732H188.092C187.757 36.4875 187.074 37.4588 186.042 38.1874C185.026 38.916 183.766 39.2804 182.262 39.2804C181.382 39.2804 180.562 39.1286 179.804 38.825C179.045 38.5062 178.384 38.0737 177.824 37.5272C177.261 36.9656 176.821 36.313 176.502 35.5692C176.199 34.8103 176.047 33.9981 176.047 33.1329C176.047 32.2527 176.199 31.4406 176.502 30.6968C176.807 29.9379 177.231 29.2853 177.778 28.7388C178.324 28.1772 178.969 27.7446 179.713 27.441C180.471 27.1223 181.291 26.9629 182.172 26.9629C183.006 26.9629 183.781 27.0919 184.494 27.35C185.222 27.5928 185.852 27.942 186.384 28.3973C186.931 28.8375 187.37 29.3763 187.705 30.0137C188.038 30.6513 188.243 31.3572 188.319 32.1313C188.349 32.45 188.365 32.7384 188.365 32.9963C188.365 33.2392 188.357 33.5049 188.341 33.7933H179.03ZM185.222 32.0401C185.132 31.3115 184.805 30.7196 184.244 30.2642C183.698 29.8089 183.014 29.5813 182.194 29.5813C181.374 29.5813 180.692 29.8089 180.145 30.2642C179.615 30.7196 179.264 31.3115 179.098 32.0401H185.222Z" fill="white"/>
<path d="M193.774 27.1906H190.906V39.0754H193.774V33.6567C193.804 33.0495 193.948 32.5182 194.207 32.0629C194.48 31.5924 194.822 31.2052 195.232 30.9017C195.657 30.5981 196.128 30.3705 196.643 30.2187C197.159 30.0518 197.676 29.9758 198.192 29.991V26.9629C197.297 26.9629 196.453 27.1753 195.663 27.6004C194.89 28.0102 194.259 28.6401 193.774 29.4901V27.1906Z" fill="white"/>
<path opacity="0.8" d="M26.3311 20.3066L37.0997 26.7678L26.3311 33.2289L15.5625 26.7678L26.3311 20.3066Z" fill="white"/>
<path opacity="0.6" d="M26.3311 26.7676L37.0997 33.2287L26.3311 39.6898L15.5625 33.2287L26.3311 26.7676Z" fill="white"/>
<path opacity="0.4" d="M26.3311 32.6133L37.0997 39.0744L26.3311 45.5355L15.5625 39.0744L26.3311 32.6133Z" fill="white"/>
</svg>
