<svg width="197" height="64" viewBox="0 0 197 64" fill="none" xmlns="http://www.w3.org/2000/svg">
<path d="M14.8744 27.305C14.8744 26.3639 14.7436 25.5883 14.4822 24.9782C14.2208 24.3508 13.846 23.8889 13.358 23.5925C12.8874 23.2788 12.3209 23.1307 11.6586 23.1482H10.4037V35.4099C10.4037 35.8804 10.395 36.3336 10.3775 36.7694C10.3601 37.2051 10.3339 37.5363 10.2991 37.7629C10.5954 37.7281 10.9701 37.7106 11.4233 37.7106C11.8939 37.6931 12.2164 37.6845 12.3907 37.6845V39.6976H4.75645V37.972C5.15734 37.9547 5.48851 37.9024 5.74995 37.8152C6.02881 37.7281 6.23797 37.5277 6.37742 37.2138C6.53428 36.9001 6.61272 36.3947 6.61272 35.6975V23.1742H5.41007C4.41658 23.1917 3.63224 23.5316 3.05705 24.1938C2.48188 24.8562 2.19429 25.8934 2.19429 27.305H0.46875L0.599473 21.3965H16.443L16.5999 27.305H14.8744Z" fill="white"/>
<path d="M18.3594 39.6974V37.9718C18.7602 37.9545 19.0914 37.9022 19.3529 37.815C19.6317 37.7279 19.8408 37.5275 19.9803 37.2136C20.1371 36.8999 20.2156 36.3945 20.2156 35.6973V25.6839C20.2156 25.2133 20.2244 24.7601 20.2417 24.3244C20.2765 23.8887 20.3027 23.5575 20.3202 23.3309C20.0413 23.3484 19.6927 23.3658 19.2744 23.3832C18.856 23.3832 18.551 23.3919 18.3594 23.4094V21.3963C19.5968 21.3788 20.8343 21.3701 22.0719 21.3701C23.3094 21.3701 24.5468 21.3613 25.7844 21.344C27.3182 21.3265 28.6515 21.5008 29.7844 21.8668C30.9174 22.2328 31.7889 22.8254 32.399 23.6446C33.0089 24.4639 33.2965 25.5706 33.2617 26.965C33.2443 27.697 33.0613 28.3943 32.7127 29.0565C32.3815 29.7189 31.876 30.3028 31.1963 30.8082C30.534 31.3137 29.6886 31.7146 28.6603 32.011C28.9914 32.1504 29.3139 32.377 29.6277 32.6907C29.9587 33.0044 30.2376 33.3355 30.4642 33.6842L31.6931 35.5142C32.0764 36.1068 32.4163 36.5775 32.7127 36.926C33.0089 37.2747 33.3053 37.5361 33.6016 37.7104C33.8979 37.8673 34.2378 37.9545 34.6212 37.9718V39.6974H30.3074C29.9937 39.4708 29.68 39.1484 29.3662 38.73C29.0699 38.2944 28.7475 37.7975 28.3988 37.2398L26.4641 34.1025C26.2375 33.7538 26.0371 33.4576 25.8628 33.2135C25.7059 32.9696 25.5403 32.7604 25.366 32.5861C25.0871 32.5861 24.8519 32.5861 24.6601 32.5861C24.4685 32.5861 24.2506 32.5861 24.0065 32.5861V35.3836C24.0065 35.8716 23.9978 36.3334 23.9804 36.7692C23.963 37.2049 23.9369 37.5361 23.9019 37.7627C24.0937 37.7452 24.3377 37.7366 24.634 37.7366C24.9303 37.7191 25.2179 37.7104 25.4968 37.7104C25.793 37.6929 26.0023 37.6843 26.1243 37.6843V39.6974H18.3594ZM25.2615 30.7036C26.2375 30.7036 27.0219 30.5643 27.6145 30.2854C28.2072 29.989 28.6342 29.5533 28.8956 28.9781C29.1745 28.3856 29.3139 27.6447 29.3139 26.7559C29.3139 25.9192 29.1832 25.2656 28.9217 24.7951C28.6603 24.3069 28.3291 23.9497 27.9283 23.7231C27.5447 23.479 27.1526 23.3309 26.7517 23.2786C26.3508 23.209 26.0196 23.174 25.7582 23.174C25.3922 23.174 25.0785 23.2176 24.8171 23.3048C24.5556 23.3919 24.3551 23.5837 24.2158 23.8799C24.0763 24.1763 24.0065 24.6295 24.0065 25.2394V30.5991C24.1983 30.6165 24.3987 30.6426 24.6078 30.6776C24.8171 30.6949 25.035 30.7036 25.2615 30.7036Z" fill="white"/>
<path d="M43.7886 23.122C43.4052 23.1394 43.074 23.1917 42.7951 23.2788C42.5162 23.366 42.2983 23.5664 42.1415 23.8801C42.0021 24.1765 41.9323 24.682 41.9323 25.3965V35.4099C41.9323 35.8804 41.9236 36.3336 41.9063 36.7694C41.8888 37.2051 41.8626 37.5363 41.8278 37.7629C42.1067 37.7281 42.4553 37.7106 42.8736 37.7106C43.3093 37.6931 43.6143 37.6845 43.7886 37.6845V39.6976H36.2852V37.972C36.686 37.9547 37.0172 37.9024 37.2786 37.8152C37.5575 37.7281 37.7666 37.5277 37.9061 37.2138C38.063 36.9001 38.1415 36.3947 38.1415 35.6975V25.6841C38.1415 25.2135 38.1501 24.7603 38.1675 24.3246C38.2025 23.8889 38.2286 23.5577 38.246 23.3311C37.9671 23.3486 37.6185 23.366 37.2002 23.3834C36.782 23.3834 36.4769 23.3921 36.2852 23.4096V21.3965H43.7886V23.122Z" fill="white"/>
<path d="M46.3945 39.6977V37.9722C46.7954 37.9548 47.1266 37.9025 47.388 37.8154C47.6669 37.7282 47.876 37.5278 48.0155 37.2139C48.1724 36.9002 48.2507 36.3949 48.2507 35.6976V25.6843C48.2507 25.2136 48.2595 24.7604 48.2769 24.3247C48.3117 23.8891 48.3378 23.5578 48.3553 23.3313C48.0764 23.3487 47.7279 23.3661 47.3095 23.3836C46.8912 23.3836 46.5863 23.3922 46.3945 23.4097V21.3966C47.5971 21.3791 48.7998 21.3705 50.0024 21.3705C51.2225 21.3705 52.4339 21.3617 53.6366 21.3443C55.728 21.3268 57.3839 21.719 58.604 22.5207C59.8415 23.3051 60.4167 24.499 60.3295 26.1026C60.2947 26.6081 60.1378 27.1047 59.8589 27.5929C59.5801 28.0634 59.1618 28.4904 58.604 28.8739C58.0637 29.2573 57.3839 29.5624 56.5647 29.7889V29.8151C58.3077 30.094 59.5888 30.6779 60.408 31.5668C61.2272 32.4383 61.6367 33.4143 61.6367 34.4949C61.6367 35.6278 61.3578 36.5865 60.8002 37.3709C60.2599 38.1378 59.5103 38.7217 58.5517 39.1226C57.593 39.5059 56.5037 39.6977 55.2837 39.6977H46.3945ZM51.9372 37.8415C52.2509 37.8415 52.5472 37.8415 52.826 37.8415C53.1049 37.8415 53.3838 37.8415 53.6626 37.8415C53.9415 37.824 54.2117 37.8154 54.4731 37.8154C55.5364 37.7631 56.312 37.4232 56.8 36.7957C57.2881 36.1683 57.532 35.3751 57.532 34.4166C57.532 33.6147 57.3664 32.9873 57.0354 32.5341C56.7042 32.0635 56.2771 31.7324 55.7542 31.5406C55.2488 31.3489 54.7172 31.2531 54.1594 31.2531C53.7237 31.2531 53.3489 31.2531 53.0352 31.2531C52.7214 31.2531 52.3904 31.2617 52.0417 31.2792V35.5407C52.0417 36.0114 52.033 36.4559 52.0155 36.8741C51.9982 37.2924 51.972 37.6149 51.9372 37.8415ZM52.0417 29.4229L53.4012 29.3968C54.1333 29.3794 54.7084 29.2138 55.1267 28.9001C55.5626 28.5864 55.8675 28.168 56.0419 27.6451C56.2335 27.1047 56.3294 26.5209 56.3294 25.8935C56.3294 25.1963 56.19 24.6559 55.9111 24.2724C55.6322 23.8716 55.2837 23.584 54.8653 23.4097C54.447 23.2355 54.0113 23.157 53.5581 23.1743C53.2792 23.1743 53.0265 23.218 52.7999 23.3051C52.5733 23.3922 52.3904 23.5927 52.2509 23.9064C52.1115 24.2028 52.0417 24.6908 52.0417 25.3705V29.4229Z" fill="white"/>
<path d="M72.2876 33.3968C72.2876 32.6648 72.1743 32.1418 71.9477 31.8281C71.7211 31.4969 71.4074 31.2878 71.0065 31.2006C70.623 31.1135 70.196 31.0787 69.7255 31.096L69.0456 31.1222V35.4099C69.0456 35.8804 69.0369 36.3249 69.0196 36.7433C69.0021 37.1616 68.9759 37.484 68.9411 37.7106H72.4445C72.9673 37.7106 73.4728 37.5973 73.9608 37.3707C74.4488 37.1267 74.8498 36.7346 75.1635 36.1942C75.4772 35.6365 75.634 34.887 75.634 33.9458H77.3334L77.2028 39.6976H63.3984V37.972C63.7993 37.9547 64.1305 37.9024 64.3919 37.8152C64.6708 37.7281 64.8799 37.5277 65.0194 37.2138C65.1763 36.9001 65.2548 36.3947 65.2548 35.6975V25.6841C65.2548 25.2135 65.2634 24.7603 65.2809 24.3246C65.3157 23.8889 65.3419 23.5577 65.3592 23.3311C65.0803 23.3486 64.7318 23.366 64.3134 23.3834C63.8952 23.3834 63.5902 23.3921 63.3984 23.4096V21.3965H76.4707L76.6275 26.4685H74.902C74.902 25.5098 74.7365 24.7864 74.4053 24.2984C74.0741 23.8105 73.6646 23.4881 73.1764 23.3311C72.6884 23.1569 72.2091 23.0784 71.7386 23.0959L70.7973 23.122C70.4312 23.122 70.1175 23.1742 69.8561 23.2788C69.5947 23.366 69.3943 23.5752 69.2548 23.9063C69.1154 24.22 69.0456 24.7168 69.0456 25.3965V29.3183H72.1046L72 27.0436H74.0131V33.3968H72.2876Z" fill="white"/>
<path d="M100.074 27.2532C99.8475 25.8065 99.3595 24.7172 98.61 23.9851C97.878 23.253 96.9019 22.8783 95.6818 22.8608C94.7755 22.8608 93.9824 23.0701 93.3027 23.4884C92.6229 23.9066 92.0565 24.4644 91.6033 25.1617C91.1676 25.8588 90.8364 26.6518 90.6098 27.5408C90.4006 28.4297 90.2961 29.3447 90.2961 30.286C90.2961 31.7849 90.5052 33.1183 90.9235 34.2861C91.3592 35.4365 91.9867 36.3428 92.8059 37.0051C93.6251 37.6673 94.6186 37.9986 95.7864 37.9986C96.8845 37.9986 97.9738 37.7197 99.0545 37.162C100.135 36.5867 101.041 35.7937 101.773 34.7829L103.029 35.9331C102.174 37.1009 101.277 37.9899 100.335 38.5998C99.3943 39.1925 98.4706 39.5935 97.5643 39.8026C96.6753 40.0117 95.8736 40.1163 95.159 40.1163C93.8168 40.1163 92.5968 39.881 91.4987 39.4104C90.4006 38.9224 89.4507 38.26 88.649 37.4234C87.8646 36.5694 87.2545 35.5846 86.8189 34.469C86.4005 33.3361 86.1914 32.116 86.1914 30.8088C86.1914 29.6236 86.3832 28.4472 86.7665 27.2793C87.1501 26.1115 87.7165 25.057 88.4659 24.1159C89.2328 23.1572 90.1915 22.399 91.3419 21.8412C92.4922 21.2661 93.8255 20.9785 95.342 20.9785C96.0217 20.9785 96.7624 21.0918 97.5643 21.3184C98.3834 21.5275 99.1504 21.8412 99.865 22.2596L99.7604 21.1615H101.773V27.2532H100.074Z" fill="white"/>
<path d="M103.203 39.6975V37.8935C103.691 37.8935 104.083 37.7542 104.38 37.4753C104.676 37.1964 104.92 36.8304 105.112 36.3772C105.321 35.924 105.521 35.436 105.713 34.9131L110.811 20.9258H112.641L118.21 35.1745C118.315 35.436 118.454 35.8369 118.628 36.3772C118.803 36.9 118.907 37.362 118.942 37.7629C119.238 37.728 119.517 37.7106 119.779 37.7106C120.058 37.6931 120.284 37.6844 120.459 37.6844V39.6975H113.426V37.972C113.914 37.972 114.245 37.8762 114.419 37.6844C114.611 37.4753 114.698 37.1964 114.68 36.8479C114.663 36.4992 114.567 36.107 114.393 35.6713L113.87 34.2333L108.197 34.3379L107.778 35.5667C107.691 35.7933 107.561 36.1331 107.386 36.5863C107.229 37.0221 107.081 37.3882 106.942 37.6844C107.221 37.6496 107.552 37.6321 107.935 37.6321C108.336 37.6148 108.624 37.6059 108.798 37.6059V39.6975H103.203ZM108.85 32.3771H113.217L112.014 29.109C111.787 28.4816 111.587 27.8541 111.412 27.2267C111.238 26.5817 111.107 26.0153 111.02 25.5273H110.994C110.924 25.8235 110.82 26.268 110.68 26.8606C110.541 27.4533 110.323 28.1592 110.027 28.9782L108.85 32.3771Z" fill="white"/>
<path d="M121.867 37.9717C122.268 37.9543 122.599 37.902 122.861 37.8149C123.14 37.7277 123.349 37.5273 123.488 37.2135C123.645 36.8997 123.723 36.3944 123.723 35.6972V25.6838C123.723 25.2131 123.732 24.7599 123.75 24.3243C123.784 23.8886 123.81 23.5574 123.828 23.3308C123.549 23.3483 123.201 23.3656 122.782 23.3831C122.364 23.3831 122.059 23.3918 121.867 23.4092V21.3961C123.105 21.3787 124.342 21.37 125.58 21.37C126.817 21.37 128.055 21.3612 129.292 21.3438C130.826 21.3263 132.159 21.5268 133.292 21.9451C134.443 22.3635 135.323 23.0084 135.933 23.8798C136.56 24.7513 136.857 25.8842 136.822 27.2785C136.804 27.9758 136.639 28.6642 136.325 29.344C136.011 30.0064 135.549 30.6163 134.939 31.1741C134.329 31.7144 133.562 32.1589 132.639 32.5075C131.715 32.8562 130.634 33.0478 129.397 33.0828C129.013 33.1001 128.673 33.1088 128.377 33.1088C128.098 33.1088 127.811 33.1001 127.514 33.0828V35.3834C127.514 35.8714 127.506 36.3333 127.488 36.7691C127.471 37.2048 127.445 37.536 127.41 37.7626C127.601 37.7451 127.846 37.7364 128.142 37.7364C128.438 37.7189 128.726 37.7103 129.005 37.7103C129.301 37.6928 129.51 37.6841 129.632 37.6841V39.6972H121.867V37.9717ZM127.514 31.1218C127.706 31.1393 127.898 31.1566 128.09 31.1741C128.281 31.1916 128.482 31.2003 128.691 31.2003C129.65 31.2003 130.425 31.0433 131.018 30.7296C131.628 30.3986 132.072 29.9279 132.351 29.3179C132.63 28.6904 132.769 27.9323 132.769 27.0433C132.769 26.1718 132.647 25.4747 132.403 24.9517C132.177 24.4289 131.88 24.0454 131.515 23.8014C131.149 23.5399 130.765 23.3744 130.364 23.3046C129.963 23.2175 129.597 23.1738 129.266 23.1738C128.9 23.1738 128.586 23.2175 128.325 23.3046C128.063 23.3918 127.863 23.5835 127.724 23.8798C127.584 24.1761 127.514 24.6293 127.514 25.2393V31.1218Z" fill="white"/>
<path d="M145.917 23.122C145.533 23.1394 145.202 23.1917 144.924 23.2788C144.645 23.366 144.428 23.5664 144.27 23.8801C144.13 24.1765 144.061 24.682 144.061 25.3965V35.4099C144.061 35.8804 144.052 36.3336 144.035 36.7694C144.018 37.2051 143.991 37.5363 143.957 37.7629C144.236 37.7281 144.584 37.7106 145.002 37.7106C145.438 37.6931 145.744 37.6845 145.917 37.6845V39.6976H138.414V37.972C138.815 37.9547 139.146 37.9024 139.408 37.8152C139.686 37.7281 139.896 37.5277 140.035 37.2138C140.192 36.9001 140.27 36.3947 140.27 35.6975V25.6841C140.27 25.2135 140.279 24.7603 140.296 24.3246C140.331 23.8889 140.358 23.5577 140.375 23.3311C140.096 23.3486 139.747 23.366 139.329 23.3834C138.911 23.3834 138.606 23.3921 138.414 23.4096V21.3965H145.917V23.122Z" fill="white"/>
<path d="M162.038 27.305C162.038 26.3639 161.907 25.5883 161.646 24.9782C161.384 24.3508 161.01 23.8889 160.521 23.5925C160.051 23.2788 159.485 23.1307 158.823 23.1482H157.568V35.4099C157.568 35.8804 157.559 36.3336 157.542 36.7694C157.524 37.2051 157.498 37.5363 157.462 37.7629C157.759 37.7281 158.135 37.7106 158.587 37.7106C159.057 37.6931 159.38 37.6845 159.555 37.6845V39.6976H151.92V37.972C152.321 37.9547 152.652 37.9024 152.914 37.8152C153.192 37.7281 153.403 37.5277 153.542 37.2138C153.698 36.9001 153.776 36.3947 153.776 35.6975V23.1742H152.574C151.58 23.1917 150.796 23.5316 150.221 24.1938C149.646 24.8562 149.358 25.8934 149.358 27.305H147.633L147.764 21.3965H163.607L163.764 27.305H162.038Z" fill="white"/>
<path d="M162.922 39.6975V37.8935C163.409 37.8935 163.802 37.7542 164.097 37.4753C164.395 37.1964 164.638 36.8304 164.83 36.3772C165.038 35.924 165.239 35.436 165.431 34.9131L170.53 20.9258H172.359L177.929 35.1745C178.032 35.436 178.172 35.8369 178.346 36.3772C178.521 36.9 178.625 37.362 178.661 37.7629C178.956 37.728 179.235 37.7106 179.496 37.7106C179.776 37.6931 180.002 37.6844 180.177 37.6844V39.6975H173.144V37.972C173.631 37.972 173.963 37.8762 174.137 37.6844C174.329 37.4753 174.416 37.1964 174.399 36.8479C174.382 36.4992 174.285 36.107 174.112 35.6713L173.589 34.2333L167.916 34.3379L167.496 35.5667C167.41 35.7933 167.279 36.1331 167.104 36.5863C166.948 37.0221 166.8 37.3882 166.66 37.6844C166.939 37.6496 167.27 37.6321 167.654 37.6321C168.055 37.6148 168.342 37.6059 168.517 37.6059V39.6975H162.922ZM168.568 32.3771H172.935L171.732 29.109C171.505 28.4816 171.304 27.8541 171.131 27.2267C170.956 26.5817 170.825 26.0153 170.739 25.5273H170.712C170.642 25.8235 170.538 26.268 170.399 26.8606C170.26 27.4533 170.041 28.1592 169.745 28.9782L168.568 32.3771Z" fill="white"/>
<path d="M181.586 39.6976V37.972C181.987 37.9547 182.318 37.9024 182.58 37.8152C182.858 37.7281 183.067 37.5277 183.206 37.2138C183.364 36.9001 183.442 36.3947 183.442 35.6975V25.6841C183.442 25.2135 183.451 24.7603 183.468 24.3246C183.504 23.8889 183.529 23.5577 183.548 23.3311C183.268 23.3486 182.919 23.366 182.501 23.3834C182.083 23.3834 181.778 23.3921 181.586 23.4096V21.3965H189.09V23.122C188.706 23.1394 188.375 23.1917 188.096 23.2788C187.818 23.366 187.599 23.5664 187.442 23.8801C187.303 24.1765 187.233 24.682 187.233 25.3965V35.4099C187.233 35.8804 187.225 36.3249 187.208 36.7433C187.189 37.1616 187.164 37.484 187.128 37.7106H190.632C191.66 37.6931 192.462 37.3359 193.037 36.6387C193.63 35.9241 193.926 34.8521 193.926 33.423H195.679L195.521 39.6976H181.586Z" fill="white"/>
</svg>
