<svg width="48" height="48" viewBox="0 0 48 48" fill="none" xmlns="http://www.w3.org/2000/svg">
<g clip-path="url(#clip0_1855_19420)">
<path d="M24 48C37.2548 48 48 37.2548 48 24C48 10.7452 37.2548 0 24 0C10.7452 0 0 10.7452 0 24C0 37.2548 10.7452 48 24 48Z" fill="#627EEA"/>
<path d="M24.75 6V19.305L35.9955 24.33L24.75 6Z" fill="white" fill-opacity="0.602"/>
<path d="M24.747 6L13.5 24.33L24.747 19.305V6Z" fill="white"/>
<path d="M24.75 32.9518V41.9923L36.003 26.4238L24.75 32.9518Z" fill="white" fill-opacity="0.602"/>
<path d="M24.747 41.9923V32.9503L13.5 26.4238L24.747 41.9923Z" fill="white"/>
<path d="M24.75 30.8591L35.9955 24.3296L24.75 19.3076V30.8591Z" fill="white" fill-opacity="0.2"/>
<path d="M13.5 24.3301L24.747 30.8596V19.3081L13.5 24.3301Z" fill="white" fill-opacity="0.602"/>
</g>
<defs>
<clipPath id="clip0_1855_19420">
<rect width="48" height="48" fill="white"/>
</clipPath>
</defs>
</svg>
