<svg width="48" height="48" viewBox="0 0 48 48" fill="none" xmlns="http://www.w3.org/2000/svg">
<path d="M24 48C37.2548 48 48 37.2548 48 24C48 10.7452 37.2548 0 24 0C10.7452 0 0 10.7452 0 24C0 37.2548 10.7452 48 24 48Z" fill="black"/>
<path d="M25.0319 11.8624C25.0319 11.2756 24.582 10.7998 24.0269 10.7998L24.0258 10.7998C23.4713 10.7998 23.0214 11.2756 23.0214 11.8624V16.7184L19.3187 12.8117C18.9259 12.3972 18.2897 12.3979 17.8976 12.8134L17.8968 12.8143C17.5051 13.2293 17.5058 13.902 17.8986 14.3165L21.5674 18.1874L16.0056 18.1826C15.4504 18.1821 15.0005 18.6574 15 19.2443L15 19.2455C14.9995 19.8318 15.4487 20.3079 16.0039 20.3084L21.6127 20.3133L17.9117 24.2404C17.5199 24.6561 17.5211 25.3288 17.9142 25.7431L17.9151 25.7439C18.3078 26.1578 18.944 26.1566 19.3358 25.741L23.0214 21.8302V32.0828L20.9723 32.081C20.4176 32.0806 19.9673 32.5559 19.9668 33.1428L19.9668 33.144C19.9664 33.7303 20.4159 34.2064 20.9706 34.2069L23.0214 34.2087V36.3958C23.0214 36.9826 23.4713 37.4583 24.0258 37.4583H24.0269C24.582 37.4583 25.0319 36.9826 25.0319 36.3958V34.2105L26.9948 34.2122C27.5498 34.2127 28 33.7373 28.0005 33.1511L28.0005 33.1498C28.001 32.5629 27.5514 32.0868 26.9965 32.0863L25.0319 32.0846L25.0319 21.8428L28.7132 25.727C29.106 26.1415 29.7423 26.1407 30.1339 25.7257L30.1347 25.7249C30.5268 25.3094 30.5261 24.6367 30.1333 24.2222L26.4326 20.3176L31.9944 20.3225C32.5491 20.3229 32.9995 19.8476 32.9999 19.2613L32.9999 19.2601C33.0004 18.6732 32.5508 18.1971 31.996 18.1966L26.4505 18.1917L30.1198 14.2982C30.5116 13.8826 30.5104 13.2098 30.1177 12.796L30.1169 12.7951C29.7237 12.3809 29.0875 12.382 28.6957 12.7977L25.0319 16.6853L25.0319 11.8624Z" fill="white"/>
</svg>
