<svg width="48" height="48" viewBox="0 0 48 48" fill="none" xmlns="http://www.w3.org/2000/svg">
<g clip-path="url(#clip0_1855_19410)">
<path d="M24 48C37.2548 48 48 37.2548 48 24C48 10.7452 37.2548 0 24 0C10.7452 0 0 10.7452 0 24C0 37.2548 10.7452 48 24 48Z" fill="white"/>
<path d="M25.4807 22.0824L32.8539 14.7729L30.0569 12L24.0824 17.9229L18.1078 12L15.3107 14.7729L22.6838 22.0824C23.07 22.4652 23.5761 22.6566 24.0823 22.6566C24.5884 22.6566 25.0945 22.4653 25.4807 22.0824ZM36.1543 29.891L30.1798 23.9681L36.1543 18.045L33.3572 15.2721L25.9843 22.5817C25.212 23.3474 25.212 24.5888 25.9843 25.3545L33.3572 32.664L36.1543 29.891ZM24.072 30.0231L30.0464 35.946L32.8434 33.1732L25.4705 25.8637C24.6979 25.0979 23.446 25.0979 22.6734 25.8637L15.3005 33.1732L18.0976 35.946L24.072 30.0231ZM22.17 25.3646C22.541 24.9967 22.7493 24.4981 22.7493 23.9781C22.7493 23.4581 22.541 22.9593 22.17 22.5917L14.7971 15.2822L12 18.055L17.9744 23.978L12 29.901L14.7971 32.6739L22.1702 25.3644L22.17 25.3646Z" fill="black"/>
</g>
<defs>
<clipPath id="clip0_1855_19410">
<rect width="48" height="48" fill="white"/>
</clipPath>
</defs>
</svg>
