<svg width="48" height="48" viewBox="0 0 48 48" fill="none" xmlns="http://www.w3.org/2000/svg">
<g clip-path="url(#clip0_1870_23441)">
<path d="M24 48C37.2548 48 48 37.2548 48 24C48 10.7452 37.2548 0 24 0C10.7452 0 0 10.7452 0 24C0 37.2548 10.7452 48 24 48Z" fill="#2E3148"/>
<path d="M24.0001 37.9261C31.6912 37.9261 37.9261 31.6912 37.9261 24.0001C37.9261 16.3091 31.6912 10.0742 24.0001 10.0742C16.3091 10.0742 10.0742 16.3091 10.0742 24.0001C10.0742 31.6912 16.3091 37.9261 24.0001 37.9261Z" fill="#1B1E36"/>
<path d="M24.0507 3.06201C21.4601 3.06201 19.3594 12.4586 19.3594 24.0497C19.3594 35.6408 21.4601 45.0373 24.0507 45.0373C26.6414 45.0373 28.7421 35.6408 28.7421 24.0497C28.7421 12.4586 26.6414 3.06201 24.0507 3.06201ZM24.3747 43.8521C24.0784 44.2472 23.7821 43.9509 23.7821 43.9509C22.589 42.5682 21.9925 40.0003 21.9925 40.0003C19.9055 33.2842 20.4023 18.8645 20.4023 18.8645C21.3831 7.41658 23.1678 4.71238 23.7742 4.11189C23.8363 4.05073 23.918 4.01344 24.0049 4.00657C24.0918 3.99971 24.1783 4.02371 24.2493 4.07436C25.1302 4.69855 25.869 7.30893 25.869 7.30893C28.0507 15.4077 27.8532 23.0126 27.8532 23.0126C28.0507 29.6299 26.7599 37.0373 26.7599 37.0373C25.7663 42.667 24.3747 43.8521 24.3747 43.8521Z" fill="#6F7390"/>
<path d="M42.2514 13.6049C40.9616 11.357 31.7665 14.2113 21.7082 19.9802C11.65 25.7491 4.55366 32.2469 5.84255 34.4938C7.13144 36.7407 16.3275 33.8874 26.3858 28.1185C36.444 22.3496 43.5403 15.8518 42.2514 13.6049ZM7.03169 34.1847C6.53786 34.1224 6.64946 33.7165 6.64946 33.7165C7.2549 31.994 9.1828 30.1985 9.1828 30.1985C13.9719 25.0459 26.7275 18.3012 26.7275 18.3012C37.1443 13.4548 40.3798 13.6592 41.2006 13.8844C41.285 13.9078 41.3584 13.9603 41.4077 14.0326C41.4571 14.1049 41.4792 14.1924 41.4702 14.2795C41.3714 15.354 39.4702 17.2938 39.4702 17.2938C33.5344 23.2197 26.8391 26.8335 26.8391 26.8335C21.1976 30.2992 14.13 32.8642 14.13 32.8642C8.75218 34.8019 7.03169 34.1847 7.03169 34.1847V34.1847Z" fill="#6F7390"/>
<path d="M42.21 34.5681C43.5097 32.3262 36.4322 25.7978 26.4075 19.9864C16.3828 14.1751 7.19072 11.2852 5.89196 13.5311C4.59319 15.777 11.6697 22.3015 21.6994 28.1128C31.729 33.9242 40.9112 36.8141 42.21 34.5681ZM6.75319 14.3973C6.5606 13.942 6.96653 13.8323 6.96653 13.8323C8.7611 13.4936 11.2816 14.2649 11.2816 14.2649C18.1389 15.8264 30.366 23.4857 30.366 23.4857C39.7804 30.0733 41.2243 32.9751 41.4406 33.7988C41.4626 33.8832 41.454 33.9728 41.4165 34.0516C41.3789 34.1303 41.3147 34.1933 41.2352 34.2294C40.2534 34.6788 37.6243 34.0091 37.6243 34.0091C29.5206 31.8363 23.0396 27.8551 23.0396 27.8551C17.2164 24.7143 11.4584 19.8817 11.4584 19.8817C7.08307 16.1978 6.75517 14.4012 6.75517 14.4012L6.75319 14.3973Z" fill="#6F7390"/>
<path d="M24.0043 26.469C25.368 26.469 26.4734 25.3636 26.4734 23.9999C26.4734 22.6362 25.368 21.5308 24.0043 21.5308C22.6406 21.5308 21.5352 22.6362 21.5352 23.9999C21.5352 25.3636 22.6406 26.469 24.0043 26.469Z" fill="#787A7E"/>
<path d="M34.1235 16.0001C34.9144 16.0001 35.5556 15.3368 35.5556 14.5186C35.5556 13.7004 34.9144 13.0371 34.1235 13.0371C33.3326 13.0371 32.6914 13.7004 32.6914 14.5186C32.6914 15.3368 33.3326 16.0001 34.1235 16.0001Z" fill="#787A7E"/>
<path d="M10.6196 21.0372C11.4105 21.0372 12.0517 20.3739 12.0517 19.5557C12.0517 18.7375 11.4105 18.0742 10.6196 18.0742C9.82867 18.0742 9.1875 18.7375 9.1875 19.5557C9.1875 20.3739 9.82867 21.0372 10.6196 21.0372Z" fill="#787A7E"/>
<path d="M21.0883 39.21C21.8793 39.21 22.5204 38.5468 22.5204 37.7286C22.5204 36.9104 21.8793 36.2471 21.0883 36.2471C20.2974 36.2471 19.6562 36.9104 19.6562 37.7286C19.6562 38.5468 20.2974 39.21 21.0883 39.21Z" fill="#787A7E"/>
</g>
<defs>
<clipPath id="clip0_1870_23441">
<rect width="48" height="48" fill="white"/>
</clipPath>
</defs>
</svg>
