<svg width="48" height="48" viewBox="0 0 48 48" fill="none" xmlns="http://www.w3.org/2000/svg">
<g clip-path="url(#clip0_1870_23481)">
<path fill-rule="evenodd" clip-rule="evenodd" d="M48 24C48 37.255 37.2551 48 24.0004 48C10.7456 48 0 37.255 0 24C0 10.745 10.7456 0 24.0004 0C37.2551 0 48 10.745 48 24Z" fill="#29296E"/>
<path fill-rule="evenodd" clip-rule="evenodd" d="M34.3067 18.0762L33.7434 16.3358C33.6289 15.9818 33.3495 15.7064 32.9942 15.5978L31.2453 15.0599C31.0032 14.986 31.0012 14.6445 31.2414 14.5666L32.9824 14.0033C33.3357 13.8888 33.6112 13.6094 33.7205 13.2541L34.2576 11.5052C34.3316 11.2638 34.6731 11.2612 34.751 11.5019L35.3143 13.2424C35.4288 13.5957 35.7082 13.8711 36.0634 13.9804L37.8123 14.5176C38.0544 14.5922 38.057 14.933 37.8163 15.0109L36.0752 15.5742C35.7219 15.6887 35.4465 15.9688 35.3372 16.324L34.8 18.0723C34.7261 18.3144 34.3846 18.317 34.3067 18.0762Z" fill="#FAFAFA"/>
<path fill-rule="evenodd" clip-rule="evenodd" d="M3.86328 23.6485C4.38998 22.6167 5.4316 21.8394 6.51379 21.348C7.60709 20.8619 8.80903 20.5635 9.98935 20.4667C12.3722 20.2514 14.6937 20.6499 16.8083 21.3389C17.8977 21.6634 18.8726 22.1142 19.8795 22.5695C20.3689 22.8051 20.8289 23.0721 21.3026 23.3299L22.6112 24.0881C24.0479 24.9688 25.4409 25.7487 26.7495 26.3546C28.0613 26.9552 29.2469 27.3615 30.3644 27.5689C31.4819 27.779 32.6178 27.7764 34.0147 27.4558C35.4004 27.1423 36.9596 26.4665 38.5894 25.5996C40.2291 24.732 41.9106 23.6681 43.829 22.6284C43.6366 24.8013 43.0216 26.8388 42.0611 28.8062C41.077 30.7501 39.7083 32.6462 37.7127 34.1818C35.7551 35.7298 33.0666 36.8087 30.3298 36.971C27.5915 37.1562 24.9869 36.5529 22.7708 35.6454C20.5462 34.7249 18.624 33.5151 16.9202 32.1797C16.4497 31.8107 16.1972 31.6013 15.8498 31.3076L14.8795 30.4576C14.2258 29.946 13.5925 29.3342 12.9454 28.8271C11.6545 27.7482 10.3773 26.6673 8.97716 25.7304C8.27117 25.2541 7.54299 24.8124 6.71727 24.4212C6.30703 24.2321 5.87128 24.0561 5.40347 23.9174C4.92453 23.761 4.43774 23.6681 3.86328 23.6485Z" fill="#F6643C"/>
<path fill-rule="evenodd" clip-rule="evenodd" d="M3.86328 23.6483C4.1322 21.4126 5.17447 19.3156 6.84485 17.5307C8.50673 15.7628 11.1029 14.3999 13.9837 14.2193C15.4055 14.1245 16.8489 14.2828 18.1758 14.6505C19.4968 15.0169 20.7346 15.5508 21.8502 16.1796C22.4077 16.4956 22.9291 16.8411 23.4486 17.1898L24.8331 18.238L26.9942 19.943C28.397 21.0599 29.7356 22.093 30.9729 22.9462C32.2219 23.8007 33.2858 24.4249 34.3019 24.7906C35.3088 25.1897 36.5808 25.2918 38.2623 24.8691C39.0971 24.6768 39.968 24.3254 40.8971 23.9446C41.821 23.5547 42.7801 23.0895 43.829 22.6282C43.7027 23.7523 43.4743 24.8718 43.0405 25.918C42.6237 26.9786 42.0748 28.0163 41.3073 28.9839C40.9148 29.455 40.494 29.9287 40.0033 30.3658C39.5126 30.7924 38.9689 31.1974 38.3683 31.5527C37.1703 32.2468 35.7492 32.7539 34.2914 32.9345C32.8337 33.1177 31.3701 33.0261 30.0373 32.7435C28.6973 32.4687 27.4764 32.0257 26.3556 31.5141C24.1219 30.4751 22.2532 29.1691 20.6012 27.7866C19.7716 27.0963 18.9936 26.3753 18.2569 25.6432L17.3867 24.7697C17.1243 24.5165 16.8594 24.262 16.597 24.0291C15.5397 23.0941 14.5582 22.3796 13.4773 21.934C12.4043 21.4675 11.031 21.2758 9.34617 21.5912C7.66796 21.9033 5.82679 22.6289 3.86328 23.6483Z" fill="#FAFAFA"/>
<path fill-rule="evenodd" clip-rule="evenodd" d="M12.7157 35.1775C12.7157 35.839 12.1792 36.3755 11.5177 36.3755C10.8562 36.3755 10.3203 35.839 10.3203 35.1775C10.3203 34.516 10.8562 33.9795 11.5177 33.9795C12.1792 33.9795 12.7157 34.516 12.7157 35.1775Z" fill="#FAFAFA"/>
<path fill-rule="evenodd" clip-rule="evenodd" d="M12.7157 35.1775C12.7157 35.839 12.1792 36.3755 11.5177 36.3755C10.8562 36.3755 10.3203 35.839 10.3203 35.1775C10.3203 34.516 10.8562 33.9795 11.5177 33.9795C12.1792 33.9795 12.7157 34.516 12.7157 35.1775Z" fill="#FAFAFA"/>
</g>
<defs>
<clipPath id="clip0_1870_23481">
<rect width="48" height="48" fill="white"/>
</clipPath>
</defs>
</svg>
