<svg width="48" height="48" viewBox="0 0 48 48" fill="none" xmlns="http://www.w3.org/2000/svg">
<g clip-path="url(#clip0_1870_23325)">
<path d="M24 48C37.2548 48 48 37.2548 48 24C48 10.7452 37.2548 0 24 0C10.7452 0 0 10.7452 0 24C0 37.2548 10.7452 48 24 48Z" fill="#110666"/>
<path d="M36.5947 13.9478C36.3069 12.8527 35.3957 11.7496 33.7411 10.5347C32.4143 9.55952 31.0155 9 29.8964 9C29.6726 9 29.4728 9.02398 29.265 9.06395C28.7534 9.16786 28.3058 9.54354 28.026 10.1031C27.6823 10.7665 27.6024 11.6537 27.8262 12.1973C27.9061 12.3651 28.0101 12.5729 28.1299 12.7568C27.0509 13.4202 26.4434 13.6041 26.3555 13.628C29.1611 14.5792 31.5031 16.5695 32.9738 19.1593L32.9978 18.9115C33.0617 18.2321 33.2615 17.4408 33.5493 16.6335C33.8371 16.7134 34.1168 16.7613 34.4046 16.7613C35.1559 16.7613 35.8114 16.4496 36.219 15.8901C36.6107 15.3146 36.7785 14.5712 36.5947 13.9478Z" fill="#5E12A0"/>
<path d="M33.6606 16.0181C35.515 16.5377 36.2664 15.0829 36.0186 14.1158C35.7548 13.1406 34.8995 12.1494 33.3888 11.0304C31.8861 9.91136 30.3594 9.45575 29.3763 9.66357C28.4011 9.87139 28.1133 11.3821 28.3611 11.9656C28.465 12.1894 28.6889 12.5251 28.9926 12.9008C28.6089 13.1726 28.2412 13.3804 27.9375 13.5642C29.8079 14.4115 31.4385 15.7384 32.6614 17.3929C32.8053 16.8334 33.0052 16.3379 33.189 15.8982C33.3329 15.9142 33.4927 15.9542 33.6606 16.0181Z" fill="url(#paint0_radial_1870_23325)"/>
<path d="M23.0541 36.3122C29.3367 36.3122 34.4364 31.1327 34.4364 24.7381C34.4364 18.3436 29.3447 13.1641 23.0541 13.1641C16.7715 13.1641 11.6719 18.3436 11.6719 24.7381C11.6719 31.1327 16.7715 36.3122 23.0541 36.3122Z" fill="url(#paint1_radial_1870_23325)"/>
<path opacity="0.6" d="M35.0833 13.1562C33.5327 11.5016 32.2298 11.062 30.6631 10.7103C29.4402 10.4225 29.7679 9.71915 31.2546 9.86302C30.5432 9.61524 29.8718 9.55129 29.3842 9.6552C28.4091 9.86302 28.1213 11.3737 28.3691 11.9572C28.473 12.181 28.6968 12.5167 29.0005 12.8924C28.449 13.2681 27.9854 13.5319 27.5938 13.7397C27.7776 13.8196 28.0014 13.9235 28.2652 14.0674C28.9606 14.4431 29.7119 15.0586 29.7119 15.0586C28.5689 14.0674 28.8167 13.6118 30.3834 12.4928C30.8709 12.1411 31.7662 12.181 32.6055 12.6207C33.4447 13.0603 34.4199 14.1553 34.4199 14.1553L33.4847 15.9778C33.5486 16.0018 33.6046 16.0177 33.6685 16.0417C34.26 16.2096 34.7236 16.1696 35.0913 16.0177C35.515 15.746 36.634 14.8348 35.0833 13.1562Z" fill="#A98698"/>
<path d="M30.6465 11.7095C31.0542 11.8774 31.5817 12.1651 32.2372 12.5967C33.0125 13.1163 33.6839 13.6918 34.1076 14.1474C33.3962 15.0986 32.9246 16.4015 32.6448 17.3127C32.7887 17.5205 32.9486 17.7283 33.0925 17.9362C33.2363 17.4166 33.4761 16.6493 33.8038 15.8899C33.8838 15.9139 33.9877 15.9139 34.0916 15.9139C34.3394 15.9139 34.6191 15.8739 34.8429 15.6821C35.0028 15.5542 35.1867 15.3304 35.1707 14.9148C35.1707 14.5231 34.8669 14.0275 34.2355 13.42C33.7879 12.9884 33.1804 12.5088 32.5649 12.0772C30.8144 10.8942 29.5915 10.5665 29.0399 11.126C28.6722 11.5017 28.7122 11.9573 28.8401 12.285C28.1927 12.7166 27.6411 13.0284 27.2734 13.2362C27.5212 13.3161 27.745 13.42 27.9848 13.5239C28.6323 13.1802 29.5675 12.5808 30.6465 11.7095ZM34.4913 14.675C34.5552 14.7789 34.5712 14.8828 34.5712 14.9467C34.5712 15.1306 34.5072 15.1945 34.4673 15.2345C34.3873 15.2984 34.2195 15.3384 34.0836 15.3384C34.2115 15.0826 34.3474 14.8748 34.4913 14.675ZM29.4636 11.5816C29.5275 11.5177 29.6874 11.4777 29.9511 11.5177C29.7513 11.6855 29.5435 11.8294 29.3437 11.9733C29.3197 11.8374 29.3437 11.6855 29.4636 11.5816Z" fill="#5E12A0"/>
<path d="M23.0537 12.4771C16.3954 12.4771 11 17.9683 11 24.7385C11 31.5087 16.3954 37 23.0537 37C29.712 37 35.1073 31.5087 35.1073 24.7385C35.1073 17.9683 29.688 12.4771 23.0537 12.4771ZM23.0537 36.3126C16.7631 36.3126 11.6714 31.1331 11.6714 24.7385C11.6714 18.344 16.7631 13.1645 23.0537 13.1645C29.3443 13.1645 34.4359 18.344 34.4359 24.7385C34.4359 31.1331 29.3203 36.3126 23.0537 36.3126Z" fill="#5E12A0"/>
<path opacity="0.6" d="M23.0541 36.3122C29.3367 36.3122 34.4364 31.1327 34.4364 24.7381C34.4364 18.3436 29.3447 13.1641 23.0541 13.1641C16.7715 13.1641 11.6719 18.3436 11.6719 24.7381C11.6719 31.1327 16.7715 36.3122 23.0541 36.3122Z" fill="url(#paint2_linear_1870_23325)"/>
<path opacity="0.6" d="M22.973 34.9057C16.7624 33.8905 12.55 27.9516 13.5651 21.629C14.0127 18.8314 15.3955 16.4495 17.3539 14.731C14.5003 16.4095 12.3901 19.327 11.8146 22.892C10.8155 29.2065 15.0279 35.1534 21.2225 36.1686C24.6836 36.7521 28.0247 35.649 30.4866 33.4989C28.3045 34.7778 25.6587 35.3373 22.973 34.9057Z" fill="#A98698"/>
<path opacity="0.6" d="M24.8706 13.3241C22.0011 12.8445 19.2114 13.5079 16.9334 14.9787C16.8934 15.0186 16.8535 15.0586 16.8535 15.0586C17.7327 14.5231 19.0116 14.0435 19.0116 14.0435C15.7104 15.9938 14.6953 18.2079 14.6953 18.2079C15.9742 15.6821 19.747 13.8996 22.6965 13.7797C25.6459 13.6518 27.5803 14.547 29.9462 16.4734C32.3042 18.4237 33.735 22.3963 33.5911 25.5456C33.4712 28.6949 31.8406 31.2367 31.8406 31.2367C32.9597 29.766 33.6311 28.6869 34.0627 27.5919C34.1426 27.2641 34.2226 26.9284 34.2625 26.5767C35.2697 20.2861 31.0733 14.3392 24.8706 13.3241Z" fill="url(#paint3_linear_1870_23325)"/>
<path d="M33.8601 24.6348C33.8601 30.7016 29.0163 35.6333 23.0534 35.6333C17.0905 35.6333 12.2227 30.7016 12.2227 24.6348H33.8601Z" fill="url(#paint4_linear_1870_23325)"/>
<path opacity="0.6" d="M33.0042 24.6348C33.0042 30.5577 28.4001 35.4015 22.6211 35.6333C22.765 35.6333 22.9088 35.6333 23.0447 35.6333C29.0076 35.6333 33.8515 30.7016 33.8515 24.6348H33.0042Z" fill="url(#paint5_linear_1870_23325)"/>
<path opacity="0.7" d="M13.7493 24.6348H12.2227C12.2227 30.7016 17.0665 35.6333 23.0294 35.6333C23.2932 35.6333 23.541 35.6333 23.7807 35.6094C18.1855 35.1937 13.7493 30.4298 13.7493 24.6348Z" fill="url(#paint6_linear_1870_23325)"/>
<path d="M33.8441 24.739C33.8441 23.476 31.686 22.7487 28.8164 22.5009C26.7382 22.333 24.644 22.5408 22.2381 23.2842C20.1599 23.9077 18.2895 23.8038 16.9226 23.6359C13.8932 23.2842 12.2227 23.2442 12.2227 24.731C12.2227 26.8811 16.539 29.5748 23.0134 28.6476C26.2906 28.168 27.9771 27.2008 29.9115 26.5374C32.0137 25.834 33.8441 25.858 33.8441 24.739Z" fill="url(#paint7_linear_1870_23325)"/>
<path d="M26.5961 19.5192C27.6112 19.5192 28.4265 18.688 28.4265 17.6568C28.4265 16.6257 27.6032 15.7944 26.5961 15.7944C25.5809 15.7944 24.7656 16.6257 24.7656 17.6568C24.7656 18.688 25.5809 19.5192 26.5961 19.5192Z" fill="white"/>
<path d="M29.5839 20.9016C30.0076 20.9016 30.3593 20.5499 30.3593 20.1183C30.3593 19.6867 30.0156 19.335 29.5839 19.335C29.1523 19.335 28.8086 19.6867 28.8086 20.1183C28.8086 20.5499 29.1603 20.9016 29.5839 20.9016Z" fill="white"/>
<path opacity="0.6" d="M32.3587 16.1615C32.3347 16.1615 32.3187 16.1615 32.3187 16.1615C32.1988 16.1375 32.1189 16.0176 32.1348 15.8737C32.3187 14.9225 33.094 14.0113 33.134 13.9714C33.2139 13.8675 33.3818 13.8674 33.4617 13.9474C33.5656 14.0273 33.5656 14.1952 33.4857 14.2751C33.4617 14.2991 32.7503 15.1464 32.5905 15.9696C32.5585 16.0975 32.4626 16.1615 32.3587 16.1615Z" fill="url(#paint8_linear_1870_23325)"/>
<path opacity="0.2" d="M22.3019 33.3711C22.6136 33.3711 22.8694 33.1153 22.8694 32.7876C22.8694 32.4679 22.6136 32.2041 22.3019 32.2041C21.9902 32.2041 21.7344 32.4599 21.7344 32.7876C21.7344 33.1153 21.9822 33.3711 22.3019 33.3711Z" fill="white"/>
<path opacity="0.6" d="M21.9744 33.1627C21.7505 32.9309 21.7505 32.5633 21.9744 32.3314C22.0143 32.2915 22.0543 32.2675 22.0942 32.2275C22.0143 32.2515 21.9504 32.2915 21.8944 32.3554C21.6706 32.5792 21.6706 32.9549 21.8944 33.1867C22.0783 33.3706 22.366 33.4105 22.5898 33.2906C22.382 33.3706 22.1342 33.3306 21.9744 33.1627Z" fill="url(#paint9_linear_1870_23325)"/>
<path opacity="0.3" d="M22.5027 32.6279C22.5667 32.6279 22.6226 32.5719 22.6226 32.5C22.6226 32.428 22.5667 32.3721 22.5027 32.3721C22.4388 32.3721 22.3828 32.428 22.3828 32.5C22.3828 32.5719 22.4388 32.6279 22.5027 32.6279Z" fill="white"/>
<path opacity="0.2" d="M25.2747 33.083C25.5865 33.083 25.8422 32.8272 25.8422 32.4995C25.8422 32.1798 25.5865 31.916 25.2747 31.916C24.963 31.916 24.7072 32.1718 24.7072 32.4995C24.6992 32.8192 24.955 33.083 25.2747 33.083Z" fill="white"/>
<path opacity="0.6" d="M24.9509 32.8756C24.7271 32.6518 24.7271 32.2761 24.9509 32.0443C24.9909 32.0044 25.0308 31.9804 25.0708 31.9404C24.9909 31.9644 24.9269 32.0044 24.871 32.0683C24.6472 32.2921 24.6472 32.6678 24.871 32.8996C25.0548 33.0834 25.3426 33.1314 25.5664 33.0035C25.3586 33.0834 25.1108 33.0435 24.9509 32.8756Z" fill="url(#paint10_linear_1870_23325)"/>
<path opacity="0.3" d="M25.4754 32.332C25.5393 32.332 25.5953 32.276 25.5953 32.2041C25.5953 32.1321 25.5393 32.0762 25.4754 32.0762C25.4114 32.0762 25.3555 32.1321 25.3555 32.2041C25.3555 32.276 25.4114 32.332 25.4754 32.332Z" fill="white"/>
<path opacity="0.2" d="M23.8064 34.4262C24.0462 34.4262 24.2301 34.2344 24.2301 33.9946C24.2301 33.7548 24.0382 33.563 23.8064 33.563C23.5667 33.563 23.3828 33.7548 23.3828 33.9946C23.3828 34.2344 23.5746 34.4262 23.8064 34.4262Z" fill="white"/>
<path opacity="0.6" d="M23.5667 34.2582C23.4068 34.0904 23.4068 33.8026 23.5667 33.6347C23.5906 33.6108 23.6306 33.5948 23.6466 33.5708C23.5826 33.5948 23.5427 33.6347 23.5027 33.6747C23.3428 33.8426 23.3428 34.1303 23.5027 34.2982C23.6466 34.4421 23.8464 34.466 24.0303 34.3621C23.8704 34.4261 23.6866 34.3861 23.5667 34.2582Z" fill="url(#paint11_linear_1870_23325)"/>
<path opacity="0.3" d="M23.951 33.8508C23.999 33.8508 24.031 33.8108 24.031 33.7708C24.031 33.7229 23.991 33.6909 23.951 33.6909C23.9111 33.6909 23.8711 33.7309 23.8711 33.7708C23.8711 33.8108 23.9031 33.8508 23.951 33.8508Z" fill="white"/>
<path opacity="0.2" d="M26.4356 34.1147C26.6754 34.1147 26.8592 33.9229 26.8592 33.6831C26.8592 33.4433 26.6674 33.2515 26.4356 33.2515C26.1958 33.2515 26.012 33.4433 26.012 33.6831C26.004 33.9229 26.1958 34.1147 26.4356 34.1147Z" fill="white"/>
<path opacity="0.6" d="M26.1877 33.9545C26.0279 33.7866 26.0279 33.4989 26.1877 33.331C26.2117 33.3071 26.2517 33.2911 26.2677 33.2671C26.2037 33.2911 26.1638 33.331 26.1238 33.371C25.9639 33.5389 25.9639 33.8266 26.1238 33.9945C26.2677 34.1383 26.4675 34.1623 26.6514 34.0584C26.4915 34.1144 26.3076 34.0744 26.1877 33.9545Z" fill="url(#paint12_linear_1870_23325)"/>
<path opacity="0.3" d="M26.577 33.5388C26.625 33.5388 26.657 33.4988 26.657 33.4588C26.657 33.4109 26.617 33.3789 26.577 33.3789C26.5371 33.3789 26.4971 33.4189 26.4971 33.4588C26.4891 33.4988 26.5291 33.5388 26.577 33.5388Z" fill="white"/>
<path opacity="0.2" d="M19.8806 33.1631C20.4002 33.1631 20.8158 32.7395 20.8158 32.2119C20.8158 31.6844 20.4002 31.2607 19.8806 31.2607C19.3611 31.2607 18.9454 31.6844 18.9454 32.2119C18.9374 32.7395 19.3611 33.1631 19.8806 33.1631Z" fill="white"/>
<path opacity="0.6" d="M19.3451 32.8114C18.9774 32.4358 18.9774 31.8363 19.3451 31.4686C19.409 31.4046 19.465 31.3647 19.5449 31.3247C19.425 31.3647 19.3211 31.4526 19.2172 31.5325C18.8495 31.9082 18.8495 32.5077 19.2172 32.8754C19.5209 33.1871 19.9925 33.2511 20.3602 33.0193C20.0165 33.1631 19.6168 33.0992 19.3451 32.8114Z" fill="url(#paint13_linear_1870_23325)"/>
<path opacity="0.3" d="M20.1998 31.9244C20.3117 31.9244 20.3997 31.8285 20.3997 31.7166C20.3997 31.6047 20.3117 31.5088 20.1998 31.5088C20.0879 31.5088 20 31.6047 20 31.7166C20 31.8285 20.0879 31.9244 20.1998 31.9244Z" fill="white"/>
<path opacity="0.2" d="M28.2399 30.8213C28.7594 30.8213 29.1751 30.3977 29.1751 29.8701C29.1751 29.3426 28.7594 28.9189 28.2399 28.9189C27.7203 28.9189 27.3047 29.3426 27.3047 29.8701C27.3047 30.3977 27.7283 30.8213 28.2399 30.8213Z" fill="white"/>
<path opacity="0.6" d="M27.6966 30.4696C27.3289 30.094 27.3289 29.4945 27.6966 29.1268C27.7606 29.0628 27.8165 29.0229 27.8965 28.9829C27.7766 29.0229 27.6726 29.1108 27.5687 29.1907C27.201 29.5664 27.201 30.1659 27.5687 30.5336C27.8725 30.8453 28.3441 30.9093 28.7118 30.6775C28.368 30.8213 27.9764 30.7654 27.6966 30.4696Z" fill="url(#paint14_linear_1870_23325)"/>
<path opacity="0.3" d="M28.5709 29.5826C28.6828 29.5826 28.7708 29.4867 28.7708 29.3748C28.7708 29.2629 28.6828 29.167 28.5709 29.167C28.459 29.167 28.3711 29.2629 28.3711 29.3748C28.3711 29.4867 28.459 29.5826 28.5709 29.5826Z" fill="white"/>
</g>
<defs>
<radialGradient id="paint0_radial_1870_23325" cx="0" cy="0" r="1" gradientUnits="userSpaceOnUse" gradientTransform="translate(35.6497 12.8075) scale(9.09876 9.25544)">
<stop stop-color="#FFEAFF" stop-opacity="0.6"/>
<stop offset="0.6807" stop-color="#A087C9"/>
<stop offset="1" stop-color="#10002F"/>
</radialGradient>
<radialGradient id="paint1_radial_1870_23325" cx="0" cy="0" r="1" gradientUnits="userSpaceOnUse" gradientTransform="translate(30.5882 16.7545) scale(22.2614 22.6448)">
<stop stop-color="#FFEAFF" stop-opacity="0.6"/>
<stop offset="0.6807" stop-color="#A087C9"/>
<stop offset="1" stop-color="#10002F"/>
</radialGradient>
<linearGradient id="paint2_linear_1870_23325" x1="21.1708" y1="36.1537" x2="24.9362" y2="13.3168" gradientUnits="userSpaceOnUse">
<stop stop-color="#81FFFF"/>
<stop offset="0.6202" stop-color="white" stop-opacity="0"/>
</linearGradient>
<linearGradient id="paint3_linear_1870_23325" x1="31.1729" y1="16.9816" x2="21.6159" y2="25.6019" gradientUnits="userSpaceOnUse">
<stop offset="0.2888" stop-color="white"/>
<stop offset="0.7796" stop-color="white" stop-opacity="0"/>
</linearGradient>
<linearGradient id="paint4_linear_1870_23325" x1="12.2223" y1="30.1302" x2="33.8628" y2="30.1302" gradientUnits="userSpaceOnUse">
<stop stop-color="#0002E9"/>
<stop offset="0.9952" stop-color="#FF00C7"/>
</linearGradient>
<linearGradient id="paint5_linear_1870_23325" x1="34.9377" y1="25.6584" x2="22.9773" y2="36.7703" gradientUnits="userSpaceOnUse">
<stop offset="0.2888" stop-color="white"/>
<stop offset="0.7796" stop-color="white" stop-opacity="0"/>
</linearGradient>
<linearGradient id="paint6_linear_1870_23325" x1="12.2223" y1="30.1302" x2="23.7856" y2="30.1302" gradientUnits="userSpaceOnUse">
<stop stop-color="#000292"/>
<stop offset="0.9952" stop-color="#7D00C7"/>
</linearGradient>
<linearGradient id="paint7_linear_1870_23325" x1="12.246" y1="25.6428" x2="33.843" y2="25.6428" gradientUnits="userSpaceOnUse">
<stop stop-color="#000292"/>
<stop offset="0.9952" stop-color="#BE00C7"/>
</linearGradient>
<linearGradient id="paint8_linear_1870_23325" x1="33.517" y1="13.8829" x2="31.926" y2="16.4244" gradientUnits="userSpaceOnUse">
<stop offset="0.2888" stop-color="white"/>
<stop offset="0.7796" stop-color="white" stop-opacity="0"/>
</linearGradient>
<linearGradient id="paint9_linear_1870_23325" x1="21.7245" y1="32.7957" x2="22.5857" y2="32.7957" gradientUnits="userSpaceOnUse">
<stop offset="0.2888" stop-color="white"/>
<stop offset="0.7796" stop-color="white" stop-opacity="0"/>
</linearGradient>
<linearGradient id="paint10_linear_1870_23325" x1="24.6972" y1="32.5061" x2="25.5585" y2="32.5061" gradientUnits="userSpaceOnUse">
<stop offset="0.2888" stop-color="white"/>
<stop offset="0.7796" stop-color="white" stop-opacity="0"/>
</linearGradient>
<linearGradient id="paint11_linear_1870_23325" x1="23.3775" y1="34.0044" x2="24.0242" y2="34.0044" gradientUnits="userSpaceOnUse">
<stop offset="0.2888" stop-color="white"/>
<stop offset="0.7796" stop-color="white" stop-opacity="0"/>
</linearGradient>
<linearGradient id="paint12_linear_1870_23325" x1="25.9942" y1="33.6937" x2="26.6408" y2="33.6937" gradientUnits="userSpaceOnUse">
<stop offset="0.2888" stop-color="white"/>
<stop offset="0.7796" stop-color="white" stop-opacity="0"/>
</linearGradient>
<linearGradient id="paint13_linear_1870_23325" x1="18.9423" y1="32.238" x2="20.3489" y2="32.238" gradientUnits="userSpaceOnUse">
<stop offset="0.2888" stop-color="white"/>
<stop offset="0.7796" stop-color="white" stop-opacity="0"/>
</linearGradient>
<linearGradient id="paint14_linear_1870_23325" x1="27.295" y1="29.8982" x2="28.7017" y2="29.8982" gradientUnits="userSpaceOnUse">
<stop offset="0.2888" stop-color="white"/>
<stop offset="0.7796" stop-color="white" stop-opacity="0"/>
</linearGradient>
<clipPath id="clip0_1870_23325">
<rect width="48" height="48" fill="white"/>
</clipPath>
</defs>
</svg>
