<svg width="48" height="48" viewBox="0 0 48 48" fill="none" xmlns="http://www.w3.org/2000/svg">
<g clip-path="url(#clip0_1870_23320)">
<path fill-rule="evenodd" clip-rule="evenodd" d="M0 24C0 37.255 10.7449 48 23.9996 48C37.2544 48 48 37.255 48 24C48 10.745 37.2544 0 23.9996 0C10.7449 0 0 10.745 0 24Z" fill="#8247E5"/>
<path d="M15.7741 18.6016C16.359 18.2675 17.111 18.2675 17.7794 18.6016L22.4582 21.3576L25.6331 23.1114L30.2284 25.8674C30.8133 26.2015 31.5653 26.2015 32.2337 25.8674L35.8264 23.696C36.4112 23.362 36.829 22.6938 36.829 21.9422V17.7664C36.829 17.0983 36.4948 16.4302 35.8264 16.0126L32.2337 13.9247C31.6488 13.5907 30.8969 13.5907 30.2284 13.9247L26.6358 16.0961C26.0509 16.4302 25.6331 17.0983 25.6331 17.85V20.606L22.4582 18.7686V15.9291C22.4582 15.261 22.7924 14.5929 23.4608 14.1753L30.1449 10.2501C30.7298 9.916 31.4817 9.916 32.1501 10.2501L39.0013 14.2588C39.6697 14.5929 40.0039 15.261 40.0039 15.9291V23.7795C40.0039 24.4477 39.6697 25.1158 39.0013 25.5334L32.2337 29.4586C31.6488 29.7926 30.8969 29.7926 30.2284 29.4586L25.6331 26.7861L22.4582 24.9487L17.8629 22.2763C17.2781 21.9422 16.5261 21.9422 15.8577 22.2763L12.265 24.3641C11.6801 24.6982 11.2624 25.3663 11.2624 26.118V30.2937C11.2624 30.9619 11.5966 31.63 12.265 32.0476L15.7741 34.1354C16.359 34.4695 17.111 34.4695 17.7794 34.1354L21.3721 32.0476C21.9569 31.7135 22.3747 31.0454 22.3747 30.2937V27.6212L25.5496 29.4586V32.2146C25.5496 32.8827 25.2154 33.5508 24.547 33.9684L17.7794 37.8936C17.1945 38.2277 16.4425 38.2277 15.7741 37.8936L9.00652 33.9684C8.42166 33.6343 8.00391 32.9662 8.00391 32.2146V24.2806C8.00391 23.6125 8.33811 22.9444 9.00652 22.5268L15.7741 18.6016Z" fill="white"/>
</g>
<defs>
<clipPath id="clip0_1870_23320">
<rect width="48" height="48" fill="white"/>
</clipPath>
</defs>
</svg>
