<svg width="48" height="48" viewBox="0 0 48 48" fill="none" xmlns="http://www.w3.org/2000/svg">
<path fill-rule="evenodd" clip-rule="evenodd" d="M12.4131 11.3837C12.7938 11.003 13.3102 10.7891 13.8487 10.7891H23.9999V14.8495H14.6896L11.2238 18.3154C10.8431 18.6961 10.3267 18.91 9.7882 18.91H5.72772V29.0612H11.8184C12.3569 29.0612 12.8733 29.2752 13.2541 29.6559L18.7501 35.152H31.2799L33.3102 33.1217L22.5643 22.3759L25.4355 19.5047L37.6169 31.6861C38.4097 32.4789 38.4097 33.7645 37.6169 34.5573L33.5564 38.6178C33.1758 38.9985 32.6593 39.2124 32.1209 39.2124H17.9092C17.3707 39.2124 16.8543 38.9985 16.4736 38.6178L10.9775 33.1217H3.69748C2.57622 33.1217 1.66724 32.2128 1.66724 31.0915V16.8798C1.66724 15.7585 2.57622 14.8495 3.69748 14.8495H8.94726L12.4131 11.3837Z" fill="white"/>
<path fill-rule="evenodd" clip-rule="evenodd" d="M24.0004 10.7891C23.4617 10.7891 22.9455 11.003 22.5646 11.3837L17.4891 16.4593C15.5749 18.3734 15.5749 21.4769 17.4891 23.391C19.2609 25.1628 22.0517 25.2945 23.975 23.7863L32.7158 32.5271C33.0967 32.9077 33.613 33.1217 34.1516 33.1217H44.3028C45.4239 33.1217 46.333 32.2128 46.333 31.0915V16.8798C46.333 15.7585 45.4239 14.8495 44.3028 14.8495H34.9925L31.5267 11.3837C31.1458 11.003 30.6295 10.7891 30.0911 10.7891H24.0004Z" fill="white"/>
</svg>
