<svg width="48" height="48" viewBox="0 0 48 48" fill="none" xmlns="http://www.w3.org/2000/svg">
<path fill-rule="evenodd" clip-rule="evenodd" d="M10.3028 4.43262C7.06081 4.43262 4.43262 7.06081 4.43262 10.3028V14.2163C4.43262 17.4583 7.06081 20.0865 10.3028 20.0865V27.9135C7.06081 27.9135 4.43262 30.5416 4.43262 33.7837V37.6972C4.43262 40.9393 7.06081 43.5674 10.3028 43.5674H14.2163C17.4583 43.5674 20.0865 40.9393 20.0865 37.6972H27.9135C27.9135 40.9393 30.5416 43.5674 33.7837 43.5674H37.6972C40.9393 43.5674 43.5674 40.9393 43.5674 37.6972V33.7837C43.5674 30.5416 40.9393 27.9135 37.6972 27.9135V20.0865C40.9393 20.0865 43.5674 17.4583 43.5674 14.2163V10.3028C43.5674 7.06081 40.9393 4.43262 37.6972 4.43262H33.7837C30.5416 4.43262 27.9135 7.06081 27.9135 10.3028H20.0865C20.0865 7.06081 17.4583 4.43262 14.2163 4.43262H10.3028ZM27.9135 14.2163H20.0865C20.0865 17.4583 17.4583 20.0865 14.2163 20.0865V27.9135C17.4583 27.9135 20.0865 30.5416 20.0865 33.7837H27.9135C27.9135 30.5416 30.5416 27.9135 33.7837 27.9135V20.0865C30.5416 20.0865 27.9135 17.4583 27.9135 14.2163Z" fill="white"/>
</svg>
